<svg width="140" height="130" viewBox="0 0 140 130" fill="none" xmlns="http://www.w3.org/2000/svg">
<g clip-path="url(#clip0_65_1605)">
<path d="M70 28.8889L42.7778 0H0L54.4444 61.3889L99.2483 44.2361L70 28.8889Z" fill="#55ACEE"/>
<path d="M97.2222 0L70 28.8889L90.9611 55.2933L95.7328 49.9164L140 0H97.2222Z" fill="#3B88C3"/>
<path d="M90.2417 57.8717C90.5528 57.0881 90.7512 56.2539 90.7512 55.3692C90.7512 53.4537 89.9317 51.6167 88.4731 50.2623C87.0145 48.9079 85.0362 48.147 82.9734 48.147H57.0462C54.9834 48.147 53.0051 48.9079 51.5464 50.2623C50.0878 51.6167 49.2684 53.4537 49.2684 55.3692C49.2684 56.2539 49.4628 57.0881 49.7778 57.8717C37.1078 64.4656 28.5289 77.0359 28.5289 91.4803C28.525 112.753 47.0984 130 70.0078 130C92.9173 130 111.491 112.753 111.491 91.4803C111.491 77.0359 102.912 64.4656 90.2417 57.8717Z" fill="#FFAC33"/>
<path d="M75.46 67.1665H68.7672L58.1505 74.8654C57.9026 75.1559 57.7512 75.5073 57.715 75.8765V80.1304C57.715 80.8021 58.2983 81.4087 59.0255 81.4087H66.0061V111.793C66.0061 112.472 66.5894 113.075 67.3866 113.075H75.46C76.1833 113.075 76.7666 112.468 76.7666 111.793V68.4448C76.7666 67.7732 76.1872 67.1665 75.46 67.1665Z" fill="#9E5200"/>
</g>
<defs>
<clipPath id="clip0_65_1605">
<rect width="140" height="130" fill="white"/>
</clipPath>
</defs>
</svg>
