<svg width="140" height="130" viewBox="0 0 140 130" fill="none" xmlns="http://www.w3.org/2000/svg">
<g clip-path="url(#clip0_65_1610)">
<path d="M70 28.8889L42.7778 0H0L54.4444 61.3889L99.2483 44.2361L70 28.8889Z" fill="#55ACEE"/>
<path d="M97.2222 0L70 28.8889L90.9611 55.2933L95.7328 49.9164L140 0H97.2222Z" fill="#3B88C3"/>
<path d="M90.2416 57.8717C90.5527 57.0881 90.751 56.2539 90.751 55.3692C90.751 53.4537 89.9316 51.6167 88.473 50.2623C87.0144 48.9079 85.0361 48.147 82.9733 48.147H57.046C54.9832 48.147 53.0049 48.9079 51.5463 50.2623C50.0877 51.6167 49.2683 53.4537 49.2683 55.3692C49.2683 56.2539 49.4627 57.0881 49.7777 57.8717C37.1077 64.4656 28.5288 77.0359 28.5288 91.4803C28.5249 112.753 47.0983 130 70.0077 130C92.9172 130 111.49 112.753 111.49 91.4803C111.49 77.0359 102.912 64.4656 90.2416 57.8717Z" fill="#CCD6DD"/>
<path d="M85.5632 104.437H71.7849C75.1993 99.9807 81.1649 92.7584 83.4904 88.9054C85.2365 85.7312 86.3254 83.709 86.3254 80.1304C86.3254 72.6337 80.2199 66.4912 69.821 66.4912C61.1682 66.4912 55.2765 73.1068 55.2765 73.1068C54.7671 73.6484 54.841 74.4573 55.3504 74.8654L59.7877 79.0507C59.9185 79.1791 60.0762 79.2813 60.251 79.3512C60.4259 79.4211 60.6142 79.4572 60.8046 79.4572C60.995 79.4572 61.1833 79.4211 61.3582 79.3512C61.533 79.2813 61.6907 79.1791 61.8215 79.0507C63.2021 77.6315 65.8932 75.6743 68.8721 75.6743C72.9438 75.6743 75.2732 77.9673 75.2732 80.5348C75.2732 82.4234 74.3282 84.3157 73.3832 85.6662C69.0899 91.7401 58.3293 105.314 54.1138 110.446V111.796C54.1138 112.475 54.6932 113.078 55.4943 113.078H85.5632C85.9254 113.066 86.2692 112.928 86.5255 112.69C86.7817 112.452 86.9312 112.132 86.9438 111.796V105.722C86.9331 105.385 86.7843 105.064 86.5278 104.826C86.2713 104.587 85.9263 104.448 85.5632 104.437Z" fill="#627077"/>
</g>
<defs>
<clipPath id="clip0_65_1610">
<rect width="140" height="130" fill="white"/>
</clipPath>
</defs>
</svg>
