<svg width="140" height="130" viewBox="0 0 140 130" fill="none" xmlns="http://www.w3.org/2000/svg">
<g clip-path="url(#clip0_65_1615)">
<path d="M70 28.8889L42.7778 0H0L54.4444 61.3889L99.2483 44.2361L70 28.8889Z" fill="#55ACEE"/>
<path d="M97.2222 0L70 28.8889L90.9611 55.2933L95.7328 49.9164L140 0H97.2222Z" fill="#3B88C3"/>
<path d="M90.2417 57.8717C90.5528 57.0881 90.7512 56.2539 90.7512 55.3692C90.7512 53.4537 89.9317 51.6167 88.4731 50.2623C87.0145 48.9079 85.0362 48.147 82.9734 48.147H57.0462C54.9834 48.147 53.0051 48.9079 51.5464 50.2623C50.0878 51.6167 49.2684 53.4537 49.2684 55.3692C49.2684 56.2539 49.4628 57.0881 49.7778 57.8717C37.1078 64.4656 28.5289 77.0359 28.5289 91.4803C28.525 112.753 47.0984 130 70.0078 130C92.9173 130 111.491 112.753 111.491 91.4803C111.491 77.0359 102.912 64.4656 90.2417 57.8717Z" fill="#FF8A3B"/>
<path d="M54.915 105.986L59.4961 101.732C59.7246 101.501 60.0386 101.359 60.3752 101.333C60.7119 101.308 61.0465 101.401 61.3122 101.595C61.3122 101.595 65.8195 104.704 69.3078 104.704C72.4383 104.704 75.6389 102.274 75.6389 99.3018C75.6389 96.3299 72.3645 93.8346 66.9861 93.8346H64.5011C64.1394 93.8229 63.7959 93.6839 63.5403 93.4459C63.2847 93.2079 63.1361 92.8886 63.1245 92.5527V86.9482C63.1245 86.2043 63.7778 85.6663 64.5011 85.6663H66.9861C72.0767 85.6663 74.7639 83.3732 74.7639 80.4699C74.7639 77.5629 72.0767 75.4071 68.9461 75.4071C65.7456 75.4071 63.7117 76.9599 62.6228 78.1046C62.1095 78.6463 61.2422 78.6463 60.6628 78.1768L56.2256 74.1252C55.6383 73.6485 55.7122 72.8432 56.2256 72.3702C56.2256 72.3702 62.1872 66.4263 70.1089 66.4263C78.5439 66.4263 85.8161 71.2218 85.8161 78.7835C85.8161 83.9799 81.5967 87.8293 78.3261 89.2449V89.4507C81.7445 90.8013 87.1228 94.9865 87.1228 100.793C87.1228 108.153 80.2161 113.692 70.1789 113.692C61.0244 113.692 56.3656 109.503 54.8411 107.683C54.4017 107.199 54.4795 106.455 54.915 105.986Z" fill="#7C4119"/>
</g>
<defs>
<clipPath id="clip0_65_1615">
<rect width="140" height="130" fill="white"/>
</clipPath>
</defs>
</svg>
