<svg width="30" height="25" viewBox="0 0 30 25" fill="none" xmlns="http://www.w3.org/2000/svg">
<path d="M14.7682 7.89474L19.0909 12.0526V11.8421C19.0909 10.7952 18.6599 9.79117 17.8927 9.05089C17.1255 8.31062 16.085 7.89474 15 7.89474H14.7682ZM8.90455 8.94737L11.0182 10.9868C10.95 11.2632 10.9091 11.5395 10.9091 11.8421C10.9091 12.889 11.3401 13.893 12.1073 14.6333C12.8745 15.3736 13.915 15.7895 15 15.7895C15.3 15.7895 15.6 15.75 15.8864 15.6842L18 17.7237C17.0864 18.1579 16.0773 18.4211 15 18.4211C13.1917 18.4211 11.4575 17.7279 10.1788 16.4941C8.90016 15.2603 8.18182 13.587 8.18182 11.8421C8.18182 10.8026 8.45455 9.82895 8.90455 8.94737ZM1.36364 1.67105L4.47273 4.67105L5.08636 5.26316C2.83636 6.97368 1.06364 9.21053 0 11.8421C2.35909 17.6184 8.18182 21.7105 15 21.7105C17.1136 21.7105 19.1318 21.3158 20.9727 20.6053L21.5591 21.1579L25.5409 25L27.2727 23.3289L3.09545 0M15 5.26316C16.8083 5.26316 18.5425 5.9563 19.8212 7.19009C21.0998 8.42388 21.8182 10.0973 21.8182 11.8421C21.8182 12.6842 21.6409 13.5 21.3273 14.2368L25.3227 18.0921C27.3682 16.4474 29.0045 14.2895 30 11.8421C27.6409 6.06579 21.8182 1.97368 15 1.97368C13.0909 1.97368 11.2636 2.30263 9.54545 2.89474L12.5045 5.72368C13.2818 5.43421 14.1136 5.26316 15 5.26316Z" fill="black"/>
</svg>
