<svg width="512" height="575" viewBox="0 0 512 575" fill="none" xmlns="http://www.w3.org/2000/svg">
<path opacity="0.35" d="M107.601 0C87.1953 0 68.8923 4.23169 56.5377 10.4548C44.2944 16.6778 39.595 23.6477 39.595 28.6262C39.595 33.4802 44.2944 40.5869 56.5377 46.6731C68.8923 52.8962 87.1953 57.2523 107.601 57.2523C128.006 57.2523 146.309 52.8962 158.553 46.6731C170.92 40.5869 175.619 33.4802 175.619 28.6262C175.619 23.6477 170.92 16.6778 158.553 10.4548C146.309 4.23169 128.006 0 107.601 0ZM305.472 39.8277C285.066 39.8277 266.763 44.0594 254.52 50.2825C242.153 56.5056 237.454 63.4754 237.454 68.4539C237.454 73.3079 242.153 80.4146 254.52 86.5008C266.763 92.7239 285.066 97.0676 305.472 97.0676C311.161 97.0676 316.602 96.6942 321.796 96.0719C327.114 89.2389 334.658 83.1777 343.439 79.1451C353.579 74.54 365.328 70.8062 373.49 68.4539C373.49 63.4754 368.791 56.5056 356.424 50.2825C344.181 44.0594 325.877 39.8277 305.472 39.8277ZM39.595 62.7162C39.1003 80.9622 58.739 88.4051 71.1183 92.0891C93.2551 98.5611 121.946 98.5611 144.083 92.0891C159.913 87.5338 175.495 78.7468 175.619 62.7162C155.708 75.9464 126.646 79.5061 107.601 79.643C83.4853 77.6142 58.1577 75.1001 39.595 62.7162ZM404.408 88.7411C384.002 88.7411 365.699 92.9728 353.456 99.3079C341.089 105.407 336.389 112.501 336.389 117.355C336.389 122.333 341.089 129.303 353.456 135.526C365.699 141.749 384.002 145.981 404.408 145.981C424.813 145.981 443.116 141.749 455.359 135.526C467.726 129.303 472.426 122.333 472.426 117.355C472.426 112.501 467.726 105.407 455.359 99.3079C443.116 92.9728 424.813 88.7411 404.408 88.7411ZM237.454 102.544V105.531C241.04 106.776 244.503 108.269 247.718 109.887C258.849 115.488 268.495 123.329 273.442 133.161C286.056 136.273 300.278 137.393 314.129 136.522V119.222C311.284 119.346 308.44 119.471 305.472 119.471C282.098 119.471 260.827 114.866 244.503 106.651C242.03 105.406 239.68 104.037 237.454 102.544ZM39.595 102.668C39.1745 120.84 58.7885 128.307 71.1183 132.041C79.5278 134.406 88.9267 136.024 98.5729 136.522C101.046 130.05 105.498 124.325 111.187 119.471C95.3575 119.844 79.4042 117.853 64.9348 113.745C55.301 110.883 46.7678 107.273 39.595 102.668ZM186.749 119.471C166.344 119.471 148.041 123.827 135.797 129.925C123.43 136.148 118.731 143.118 118.731 148.097C118.731 153.075 123.43 160.045 135.797 166.268C148.041 172.491 166.344 176.723 186.749 176.723C207.155 176.723 225.458 172.491 237.701 166.268C250.068 160.045 254.767 153.075 254.767 148.097C254.767 143.118 250.068 136.148 237.701 129.925C225.458 123.827 207.155 119.471 186.749 119.471ZM39.595 142.496C39.1745 160.667 58.7885 168.135 71.1183 171.869C78.9095 174.109 87.5663 175.603 96.4705 176.225V159.049C85.5876 158.303 74.9521 156.436 64.9348 153.573C55.301 150.71 46.7678 147.101 39.595 142.496ZM336.389 151.582C336.142 169.878 355.434 177.221 367.925 180.955C390.062 187.427 418.753 187.427 440.89 180.955C456.596 176.35 472.302 167.637 472.426 151.582C470.2 152.951 467.85 154.32 465.377 155.565C449.052 163.779 427.781 168.384 404.408 168.384C381.034 168.384 359.763 163.779 343.439 155.565C340.965 154.32 338.615 152.951 336.389 151.582ZM277.028 156.809V173.86C288.653 176.225 301.638 177.096 314.129 176.35V159.174C301.638 159.796 289.024 159.049 277.028 156.809ZM118.731 182.199C118.113 189.667 121.452 195.766 125.533 199.375C130.727 203.856 139.137 208.461 150.267 211.697C172.404 218.044 201.095 218.044 223.232 211.697C234.362 208.461 242.772 203.856 247.966 199.375C254.025 194.272 254.767 189.294 254.767 182.199C252.541 183.693 250.192 185.062 247.718 186.307C231.394 194.521 210.123 199.126 186.749 199.126C163.376 199.126 142.105 194.521 125.78 186.307C123.307 185.062 120.957 183.693 118.731 182.199ZM39.595 182.324C39.1745 200.495 58.7885 207.963 71.1183 211.697C78.9095 213.937 87.5663 215.431 96.4705 216.053V198.877C85.5876 198.13 74.9521 196.263 64.9348 193.401C55.301 190.538 46.7678 186.929 39.595 182.324ZM336.389 191.409C336.142 209.705 355.434 217.049 367.925 220.782C390.062 227.254 418.753 227.254 440.89 220.782C456.596 216.177 472.302 207.465 472.426 191.409C465.253 196.015 456.72 199.624 447.074 202.487C420.237 210.328 388.578 210.328 361.742 202.487C352.095 199.624 343.562 196.015 336.389 191.409ZM277.028 196.637V213.688C288.653 216.053 301.638 216.924 314.129 216.177V199.002C301.638 199.624 289.024 198.877 277.028 196.637ZM39.595 222.151C39.1745 240.323 58.7885 247.791 71.1183 251.524C78.9095 253.765 87.5663 255.258 96.4705 255.881V238.705C85.5876 237.958 74.9521 236.091 64.9348 233.229C55.301 230.366 46.7678 226.757 39.595 222.151ZM118.731 222.151C118.113 229.619 121.452 235.593 125.533 239.203C130.727 243.683 139.137 248.288 150.267 251.524C172.404 257.872 201.095 257.872 223.232 251.524C234.362 248.288 242.772 243.683 247.966 239.203C254.025 234.1 254.767 229.246 254.767 222.151C247.595 226.757 239.061 230.366 229.415 233.229C202.579 240.945 170.92 240.945 144.083 233.229C134.437 230.366 125.904 226.757 118.731 222.151ZM336.389 231.237C336.142 249.533 355.434 256.876 367.925 260.61C390.062 267.082 418.753 267.082 440.89 260.61C456.596 256.005 472.302 247.293 472.426 231.237C465.253 235.842 456.72 239.452 447.074 242.314C420.237 250.155 388.578 250.155 361.742 242.314C352.095 239.452 343.562 235.842 336.389 231.237ZM277.028 236.465V253.516C288.653 255.881 301.638 256.752 314.129 256.005V238.829C301.638 239.452 289.024 238.705 277.028 236.465ZM118.731 261.979V264.842C122.317 266.086 125.78 267.58 128.996 269.198C140.126 274.799 149.772 282.64 154.719 292.472C176.114 297.7 202.579 297.326 223.232 291.352C234.362 288.116 242.772 283.511 247.966 279.03C254.025 273.927 254.767 269.073 254.767 261.979C247.595 266.584 239.061 270.194 229.415 273.056C202.579 280.773 170.92 280.773 144.083 273.056C134.437 270.194 125.904 266.584 118.731 261.979ZM336.389 271.065C336.142 289.361 355.434 296.704 367.925 300.438C390.062 306.91 418.753 306.91 440.89 300.438C456.596 295.833 472.302 287.12 472.426 271.065C465.253 275.67 456.72 279.279 447.074 282.142C420.237 289.983 388.578 289.983 361.742 282.142C352.095 279.279 343.562 275.67 336.389 271.065ZM277.028 276.292V293.343C288.653 295.708 301.638 296.579 314.129 295.833V278.657C301.638 279.279 289.024 278.533 277.028 276.292ZM68.0266 278.781C47.6335 278.781 29.3304 283.138 16.9634 289.236C4.72017 295.459 0.0207247 302.429 0.0207247 307.408C0.0207247 312.386 4.72017 319.356 16.9634 325.579C29.3304 331.802 47.6335 336.034 68.0266 336.034C88.432 336.034 106.735 331.802 118.978 325.579C131.345 319.356 136.045 312.386 136.045 307.408C136.045 302.429 131.345 295.459 118.978 289.236C106.735 283.138 88.432 278.781 68.0266 278.781ZM254.767 301.807C247.595 306.412 239.061 310.021 229.415 312.884C207.155 319.231 181.679 320.352 158.305 316.12V333.171C179.082 337.527 203.692 336.781 223.232 331.18C238.814 326.575 254.644 317.738 254.767 301.807ZM336.389 310.893C336.018 328.566 354.569 336.158 366.812 339.892C373.738 334.291 380.045 330.06 387.465 326.948C378.561 325.952 369.904 324.334 361.742 321.97C352.095 319.107 343.562 315.498 336.389 310.893ZM472.426 310.893C468.963 313.133 465.129 315.124 460.924 316.991C464.758 317.365 468.592 317.862 472.178 318.485C472.673 315.995 472.426 313.506 472.426 310.893ZM277.028 316.12V333.047C290.508 335.66 301.762 336.283 314.129 335.785V318.485C301.638 319.107 289.024 318.36 277.028 316.12ZM443.982 338.523C423.576 338.523 405.273 342.879 393.03 348.978C380.663 355.201 375.964 362.171 375.964 367.149C375.964 372.128 380.663 379.097 393.03 385.321C405.273 391.544 423.576 395.775 443.982 395.775C464.387 395.775 482.69 391.544 494.934 385.321C507.301 379.097 512 372.128 512 367.149C512 362.171 507.301 355.201 494.934 348.978C482.69 342.879 464.387 338.523 443.982 338.523ZM0.0207247 341.51C-0.337917 359.93 18.9545 367.274 31.5564 371.007C53.6933 377.355 82.3722 377.355 104.509 371.007C120.215 366.402 135.921 357.566 136.045 341.51C133.819 343.004 131.469 344.373 128.996 345.617C112.671 353.832 91.4001 358.437 68.0266 358.437C43.775 356.445 18.7072 353.956 0.0207247 341.51ZM254.767 341.635C247.595 346.24 239.061 349.849 229.415 352.712C207.155 359.059 181.679 360.179 158.305 355.948V372.999C179.082 377.355 203.692 376.608 223.232 371.007C238.814 366.402 254.644 357.566 254.767 341.635ZM336.389 350.72C335.895 363.54 346.283 370.759 353.456 374.492C353.456 374.492 353.579 374.617 353.703 374.617V359.184C347.272 356.819 341.46 353.956 336.389 350.72ZM0.0207247 381.462C-0.399751 399.634 19.2142 407.101 31.5564 410.835C53.6933 417.183 82.3722 417.183 104.509 410.835C120.091 406.23 135.921 397.393 136.045 381.462C128.872 386.067 120.339 389.677 110.693 392.539C83.8563 400.256 52.2092 400.256 25.373 392.539C15.7268 389.677 7.19355 386.067 0.0207247 381.462ZM158.305 395.775V412.702C164.365 414.071 170.92 414.942 177.721 415.44C180.195 408.844 184.647 403.119 190.336 398.265C179.576 398.513 168.694 397.642 158.305 395.775ZM265.898 398.265C245.492 398.265 227.189 402.621 214.946 408.719C202.579 414.942 197.88 421.912 197.88 426.891C197.88 431.869 202.579 438.839 214.946 445.062C227.189 451.285 245.492 455.517 265.898 455.517C286.303 455.517 304.606 451.285 316.85 445.062C329.217 438.839 333.916 431.869 333.916 426.891C333.916 421.912 329.217 414.942 316.85 408.719C304.606 402.621 286.303 398.265 265.898 398.265ZM375.964 401.252C375.84 419.672 394.761 427.015 407.499 430.749C429.636 437.097 458.327 437.097 480.464 430.749C496.17 426.144 511.876 417.307 512 401.252C492.46 413.2 462.903 418.054 443.982 418.178C419.743 416.187 394.638 413.698 375.964 401.252ZM0.0207247 421.29C-0.399751 439.461 19.2142 446.929 31.5564 450.663C53.6933 457.01 82.3722 457.01 104.509 450.663C120.091 446.058 135.921 437.221 136.045 421.29C128.872 425.895 120.339 429.504 110.693 432.367C83.8563 440.084 52.2092 440.084 25.373 432.367C15.7268 429.504 7.19355 425.895 0.0207247 421.29ZM375.964 441.204C375.716 459.5 395.009 466.843 407.499 470.577C429.636 476.924 458.327 476.924 480.464 470.577C496.047 465.972 511.876 457.135 512 441.204C504.827 445.809 496.294 449.418 486.648 452.281C459.811 459.997 428.152 459.997 401.316 452.281C391.67 449.418 383.136 445.809 375.964 441.204ZM197.88 460.993C197.261 468.461 200.6 474.56 204.681 478.169C209.875 482.65 218.285 487.255 229.415 490.491C251.552 496.838 280.243 496.838 302.38 490.491C313.51 487.255 321.92 482.65 327.114 478.169C332.308 473.688 333.916 469.83 333.916 466.718V460.993C331.69 462.487 329.34 463.856 326.867 465.1C310.542 473.315 289.271 477.92 265.898 477.92C242.524 477.92 221.253 473.315 204.929 465.1C202.455 463.856 200.106 462.487 197.88 460.993ZM0.0207247 461.118C-0.399751 479.289 19.2142 486.757 31.5564 490.491C53.6933 496.838 82.3722 496.838 104.509 490.491C120.091 485.885 135.921 477.049 136.045 461.118C128.872 465.723 120.339 469.332 110.693 472.195C83.8563 479.911 52.2092 479.911 25.373 472.195C15.7268 469.332 7.19355 465.723 0.0207247 461.118ZM375.964 481.031C375.716 499.327 395.009 506.671 407.499 510.404C429.636 516.752 458.327 516.752 480.464 510.404C496.047 505.799 511.876 496.963 512 481.031C504.827 485.637 496.294 489.246 486.648 492.109C459.811 499.825 428.152 499.825 401.316 492.109C391.67 489.246 383.136 485.637 375.964 481.031ZM0.0207247 500.945C-0.399751 519.117 19.2142 526.584 31.5564 530.318C53.6933 536.666 82.3722 536.666 104.509 530.318C120.091 525.713 135.921 516.876 136.045 500.945C128.872 505.55 120.339 509.16 110.693 512.022C83.8563 519.739 52.2092 519.739 25.373 512.022C15.7268 509.16 7.19355 505.55 0.0207247 500.945ZM197.88 500.945C197.385 513.765 207.773 520.984 214.946 524.718C227.189 530.941 245.492 535.172 265.898 535.172C286.303 535.172 304.606 530.941 316.85 524.718C329.093 517.001 333.916 514.014 333.916 500.945C326.743 505.55 318.21 509.16 308.564 512.022C281.727 519.739 250.068 519.739 223.232 512.022C213.586 509.16 205.052 505.55 197.88 500.945ZM375.964 520.859C375.469 533.679 385.857 540.898 393.03 544.631C405.273 550.854 423.576 555.086 443.982 555.086C464.387 555.086 482.69 550.854 494.934 544.631C507.177 536.915 512 533.928 512 520.859C504.827 525.464 496.294 529.074 486.648 531.936C459.811 539.653 428.152 539.653 401.316 531.936C391.67 529.074 383.136 525.464 375.964 520.859ZM0.0207247 540.773C-0.523421 553.468 9.76588 560.811 16.9634 564.545C29.3304 570.768 47.6335 575 68.0266 575C88.432 575 106.735 570.768 118.978 564.545C131.222 556.829 136.045 553.841 136.045 540.773C128.872 545.378 120.339 548.987 110.693 551.85C83.8563 559.567 52.2092 559.567 25.373 551.85C15.7268 548.987 7.19355 545.378 0.0207247 540.773Z" fill="black"/>
<path d="M87 433.5H262C268.904 433.5 274.5 427.904 274.5 421L274.5 146C274.5 139.096 268.904 133.5 262 133.5H87C80.0964 133.5 74.5 139.096 74.5 146L74.5 421C74.5 427.904 80.0964 433.5 87 433.5Z" fill="#CCCED5"/>
<path d="M262 133.5H105.75V330.106C105.75 350.898 114.009 370.837 128.711 385.539C143.413 400.241 163.352 408.5 184.144 408.5H274.5V146C274.5 142.685 273.183 139.505 270.839 137.161C268.495 134.817 265.315 133.5 262 133.5Z" fill="#E0E2E6"/>
<path d="M168.25 471H343.25C350.154 471 355.75 465.404 355.75 458.5L355.75 183.5C355.75 176.596 350.154 171 343.25 171H168.25C161.346 171 155.75 176.596 155.75 183.5L155.75 458.5C155.75 465.404 161.346 471 168.25 471Z" fill="#CCCED5"/>
<path d="M343.25 171H187V367.606C187 388.398 195.259 408.337 209.961 423.039C224.663 437.741 244.602 446 265.394 446H355.75V183.5C355.75 180.185 354.433 177.005 352.089 174.661C349.745 172.317 346.565 171 343.25 171Z" fill="#E0E2E6"/>
<path d="M262 508.5H437C443.904 508.5 449.5 502.904 449.5 496L449.5 221C449.5 214.096 443.904 208.5 437 208.5H262C255.096 208.5 249.5 214.096 249.5 221L249.5 496C249.5 502.904 255.096 508.5 262 508.5Z" fill="#CCCED5"/>
<path d="M437 208.5H280.75V405.106C280.75 425.898 289.009 445.837 303.711 460.539C318.413 475.241 338.352 483.5 359.144 483.5H449.5V221C449.5 217.685 448.183 214.505 445.839 212.161C443.495 209.817 440.315 208.5 437 208.5Z" fill="#E0E2E6"/>
<path d="M349.5 314.75C351.481 314.75 353.443 315.14 355.274 315.898C357.104 316.656 358.768 317.768 360.169 319.169L395.081 354.081C396.482 355.482 397.594 357.146 398.352 358.976C399.11 360.807 399.5 362.769 399.5 364.75C399.5 366.731 399.11 368.693 398.352 370.524C397.594 372.354 396.482 374.018 395.081 375.419L360.169 410.331C358.768 411.732 357.104 412.844 355.274 413.602C353.443 414.36 351.481 414.75 349.5 414.75C347.519 414.75 345.557 414.36 343.726 413.602C341.896 412.844 340.232 411.732 338.831 410.331L303.919 375.419C302.518 374.018 301.406 372.354 300.648 370.524C299.89 368.693 299.5 366.731 299.5 364.75C299.5 362.769 299.89 360.807 300.648 358.976C301.406 357.146 302.518 355.482 303.919 354.081L338.831 319.169C340.232 317.768 341.896 316.656 343.726 315.898C345.557 315.14 347.519 314.75 349.5 314.75Z" fill="#B03A3C"/>
<path d="M137 171C137 166.027 135.025 161.258 131.508 157.742C127.992 154.225 123.223 152.25 118.25 152.25H112C107.027 152.25 102.258 154.225 98.7417 157.742C95.2254 161.258 93.25 166.027 93.25 171V177.25C93.2663 181.877 95.0041 186.333 98.125 189.75C95.0041 193.167 93.2663 197.623 93.25 202.25V208.5C93.25 213.473 95.2254 218.242 98.7417 221.758C102.258 225.275 107.027 227.25 112 227.25H118.25C123.223 227.25 127.992 225.275 131.508 221.758C135.025 218.242 137 213.473 137 208.5V202.25C136.984 197.623 135.246 193.167 132.125 189.75C135.246 186.333 136.984 181.877 137 177.25V171ZM105.75 171C105.75 169.342 106.408 167.753 107.581 166.581C108.753 165.408 110.342 164.75 112 164.75H118.25C119.908 164.75 121.497 165.408 122.669 166.581C123.842 167.753 124.5 169.342 124.5 171V177.25C124.5 178.908 123.842 180.497 122.669 181.669C121.497 182.842 119.908 183.5 118.25 183.5H112C110.342 183.5 108.753 182.842 107.581 181.669C106.408 180.497 105.75 178.908 105.75 177.25V171ZM124.5 208.5C124.5 210.158 123.842 211.747 122.669 212.919C121.497 214.092 119.908 214.75 118.25 214.75H112C110.342 214.75 108.753 214.092 107.581 212.919C106.408 211.747 105.75 210.158 105.75 208.5V202.25C105.75 200.592 106.408 199.003 107.581 197.831C108.753 196.658 110.342 196 112 196H118.25C119.908 196 121.497 196.658 122.669 197.831C123.842 199.003 124.5 200.592 124.5 202.25V208.5ZM199.5 189.75H193.25C188.277 189.75 183.508 191.725 179.992 195.242C176.475 198.758 174.5 203.527 174.5 208.5V214.75C174.5 219.723 176.475 224.492 179.992 228.008C183.508 231.525 188.277 233.5 193.25 233.5H199.5C201.634 233.479 203.748 233.09 205.75 232.35V246C205.75 247.658 205.092 249.247 203.919 250.419C202.747 251.592 201.158 252.25 199.5 252.25H193.25C191.592 252.25 190.003 251.592 188.831 250.419C187.658 249.247 187 247.658 187 246H174.5C174.5 250.973 176.475 255.742 179.992 259.258C183.508 262.775 188.277 264.75 193.25 264.75H199.5C204.473 264.75 209.242 262.775 212.758 259.258C216.275 255.742 218.25 250.973 218.25 246V208.5C218.25 203.527 216.275 198.758 212.758 195.242C209.242 191.725 204.473 189.75 199.5 189.75ZM199.5 221H193.25C191.592 221 190.003 220.342 188.831 219.169C187.658 217.997 187 216.408 187 214.75V208.5C187 206.842 187.658 205.253 188.831 204.081C190.003 202.908 191.592 202.25 193.25 202.25H199.5C201.158 202.25 202.747 202.908 203.919 204.081C205.092 205.253 205.75 206.842 205.75 208.5V214.75C205.75 216.408 205.092 217.997 203.919 219.169C202.747 220.342 201.158 221 199.5 221Z" fill="#393A3A"/>
<path d="M290.125 227.25C284.323 227.25 278.759 229.555 274.657 233.657C270.555 237.759 268.25 243.323 268.25 249.125V296H280.75V271H299.5V296H312V249.125C312 243.323 309.695 237.759 305.593 233.657C301.491 229.555 295.927 227.25 290.125 227.25ZM280.75 258.5V249.125C280.75 246.639 281.738 244.254 283.496 242.496C285.254 240.738 287.639 239.75 290.125 239.75C292.611 239.75 294.996 240.738 296.754 242.496C298.512 244.254 299.5 246.639 299.5 249.125V258.5H280.75ZM418.25 421V446H399.5V421H387V467.875C387 473.677 389.305 479.241 393.407 483.343C397.509 487.445 403.073 489.75 408.875 489.75C414.677 489.75 420.241 487.445 424.343 483.343C428.445 479.241 430.75 473.677 430.75 467.875V421H418.25ZM408.875 477.25C406.389 477.25 404.004 476.262 402.246 474.504C400.488 472.746 399.5 470.361 399.5 467.875V458.5H418.25V467.875C418.25 470.361 417.262 472.746 415.504 474.504C413.746 476.262 411.361 477.25 408.875 477.25Z" fill="#B03A3C"/>
<path d="M253 369.644C251.359 368.894 249.864 367.857 248.588 366.581L213.675 331.669C212.273 330.268 211.16 328.605 210.401 326.775C209.642 324.944 209.251 322.982 209.25 321C209.25 319.019 209.64 317.057 210.398 315.226C211.156 313.396 212.268 311.732 213.669 310.331L248.581 275.419C249.859 274.142 251.356 273.105 253 272.356V369.644ZM159.25 321L132.419 294.169C131.018 292.768 129.906 291.104 129.148 289.274C128.39 287.443 128 285.481 128 283.5C128 281.519 128.39 279.557 129.148 277.726C129.906 275.896 131.018 274.232 132.419 272.831L159.25 246V321Z" fill="#393A3A"/>
</svg>
