<svg width="267" height="156" viewBox="0 0 267 156" fill="none" xmlns="http://www.w3.org/2000/svg">
<g clip-path="url(#clip0_55_399)">
<path d="M56.1904 155.406H15.3994C15.3994 155.406 14.5725 142.747 19.4645 142.603C24.3566 142.459 23.8053 148.213 29.9379 140.301C36.0705 132.389 43.5118 132.82 44.4765 137.496C45.4411 142.171 42.6162 145.911 47.7839 144.761C52.9515 143.61 60.3934 146.631 56.1904 155.406Z" fill="#E6E6E6"/>
<path d="M35.1064 155.409L34.9686 155.403C35.2898 147.069 36.9618 141.714 38.3082 138.688C39.7699 135.404 41.1784 134.075 41.1926 134.062L41.2843 134.169C41.2704 134.182 39.8784 135.498 38.4283 138.761C37.0894 141.772 35.4264 147.106 35.1064 155.409Z" fill="white"/>
<path d="M49.8696 155.426L49.7373 155.386C50.7631 151.853 52.6124 148.642 55.1193 146.039L55.2119 146.145C52.7235 148.73 50.888 151.919 49.8696 155.426Z" fill="white"/>
<path d="M21.8244 155.416L21.6877 155.396C22.1325 152.272 21.6619 149.079 20.3378 146.239C19.795 145.047 19.0764 143.952 18.2083 142.993L18.3038 142.889C19.1836 143.86 19.9121 144.968 20.4626 146.175C21.7986 149.041 22.2733 152.263 21.8244 155.416Z" fill="white"/>
<path d="M61.7262 155.598H11L10.9883 155.419C10.9593 154.973 10.3121 144.447 13.5791 140.691C13.9033 140.295 14.3034 139.973 14.7537 139.747C15.2041 139.522 15.6947 139.397 16.194 139.381C18.3235 139.318 19.6618 140.151 20.7414 140.819C22.776 142.079 24.1198 142.912 29.0069 136.606C34.3008 129.776 40.013 128.306 43.2966 129.123C45.4182 129.651 46.8804 131.144 47.3084 133.218C47.7145 135.182 47.5846 137.027 47.4807 138.51C47.3696 140.097 47.282 141.35 47.9063 141.918C48.4285 142.392 49.4674 142.435 51.1792 142.054C54.6606 141.279 59.5196 141.942 61.958 145.231C63.27 147.001 64.3037 150.217 61.7773 155.492L61.7262 155.598ZM11.3461 155.214H61.4979C63.3805 151.226 63.4394 147.858 61.6665 145.467C59.4294 142.449 54.7361 141.655 51.2561 142.43C49.3961 142.845 48.2881 142.776 47.6641 142.209C46.9007 141.514 46.9945 140.176 47.1128 138.483C47.2149 137.025 47.3417 135.21 46.9477 133.3C46.5509 131.376 45.1887 129.991 43.2107 129.499C40.0318 128.707 34.478 130.158 29.2933 136.849C24.2063 143.413 22.6736 142.464 20.5531 141.15C19.4602 140.473 18.2196 139.706 16.2042 139.766C15.7546 139.781 15.3131 139.894 14.908 140.098C14.5029 140.302 14.1431 140.592 13.8519 140.95C10.9164 144.325 11.2744 153.79 11.3464 155.214H11.3461Z" fill="#2F2E41"/>
<path d="M227.473 155.812H177.509L177.5 155.52L175.114 84.293H229.868L227.473 155.812ZM178.07 155.207H226.912L229.267 84.8987H175.714L178.07 155.207Z" fill="#3F3D56"/>
<path d="M189.428 97.4901H185.627V146.583H189.428V97.4901Z" fill="#3F3D56"/>
<path d="M204.391 97.4901H200.591V146.583H204.391V97.4901Z" fill="#3F3D56"/>
<path d="M219.354 97.4901H215.554V146.583H219.354V97.4901Z" fill="#3F3D56"/>
<path d="M261.617 105.209L261.372 105.047L199.31 64.1052L204.694 55.2126L204.939 55.3744L267 96.3161L261.617 105.209ZM200.111 63.9168L261.436 104.373L266.199 96.5048L204.875 56.0482L200.111 63.9168Z" fill="#3F3D56"/>
<path d="M246.633 60.8054C244.829 59.6136 242.735 58.9871 240.6 59.0002C238.466 59.0133 236.379 59.6654 234.589 60.8793C232.798 62.0931 231.379 63.8176 230.499 65.8482C229.62 67.8789 229.317 70.1303 229.626 72.3354L232.585 74.2876C231.841 72.485 231.67 70.4812 232.096 68.5696C232.522 66.658 233.524 64.939 234.953 63.6643C236.383 62.3897 238.166 61.6263 240.041 61.486C241.917 61.3457 243.786 61.8358 245.375 62.8846C246.964 63.9334 248.19 65.4857 248.873 67.3144C249.556 69.143 249.66 71.1519 249.17 73.0468C248.68 74.9417 247.622 76.6231 246.151 77.8449C244.679 79.0666 242.872 79.7645 240.993 79.8364L243.952 81.7886C245.993 81.1346 247.811 79.8831 249.191 78.1826C250.571 76.4821 251.455 74.404 251.737 72.195C252.02 69.986 251.689 67.7387 250.785 65.7199C249.881 63.7011 248.441 61.9955 246.635 60.8054H246.633Z" fill="#3F3D56"/>
<path d="M263.72 155.394H0V156H263.72V155.394Z" fill="#3F3D56"/>
<path d="M115.189 151.261H110.964L108.953 134.248H115.19L115.189 151.261Z" fill="#FEB8B8"/>
<path d="M102.815 155.356H116.094V150.001H107.874C106.533 150.001 105.246 150.557 104.297 151.548C103.348 152.538 102.815 153.881 102.815 155.282V155.356Z" fill="#2F2E41"/>
<path d="M113.704 124.899L116.618 128.092L129.805 117.878L125.504 113.164L113.704 124.899Z" fill="#FEB8B8"/>
<path d="M119.621 129.555L113.949 123.343L110.235 127.039L119.397 137.075L119.449 137.024C119.93 136.545 120.316 135.972 120.585 135.338C120.854 134.704 121.001 134.02 121.017 133.327C121.033 132.633 120.918 131.943 120.678 131.296C120.439 130.649 120.079 130.058 119.621 129.555V129.555Z" fill="#2F2E41"/>
<path d="M84.2942 78.2887C84.0268 77.8396 83.857 77.3348 83.7966 76.8097C83.7363 76.2847 83.7869 75.7522 83.945 75.2498C84.1031 74.7475 84.3647 74.2873 84.7115 73.9019C85.0583 73.5165 85.4818 73.2151 85.9523 73.0189L102.541 28.8838L109.007 32.9255L90.5794 75.2655C90.8427 76.1126 90.7992 77.0311 90.4571 77.8469C90.115 78.6628 89.4981 79.3192 88.7233 79.6919C87.9485 80.0646 87.0697 80.1276 86.2533 79.869C85.437 79.6103 84.7399 79.0481 84.2942 78.2887Z" fill="#FEB8B8"/>
<path d="M147.26 81.4521C146.754 81.4144 146.263 81.2614 145.82 81.004C145.378 80.7465 144.994 80.3908 144.698 79.962C144.401 79.5332 144.198 79.0417 144.103 78.5221C144.008 78.0024 144.023 77.4674 144.148 76.9546L119.675 37.0166L126.606 33.9274L148.608 74.3664C149.42 74.6405 150.108 75.2166 150.54 75.9852C150.973 76.7538 151.12 77.6615 150.954 78.5358C150.787 79.4101 150.319 80.1902 149.638 80.7281C148.957 81.2659 148.111 81.524 147.26 81.4533V81.4521Z" fill="#FEB8B8"/>
<path d="M102.704 73.8693L107.036 141.078L117.388 140.125L119.52 90.5397L125.305 111.835L137.788 112.789L132.847 70.6908L102.704 73.8693Z" fill="#2F2E41"/>
<path d="M127.132 108.657L125.304 111.836L112.517 121.053L121.651 126.138C121.651 126.138 139.311 115.967 137.789 112.789L127.132 108.657Z" fill="#2F2E41"/>
<path d="M93.6393 46.6772L97.2429 36.077C98.0447 33.7185 99.2865 31.5493 100.897 29.6951C102.507 27.8408 104.453 26.3384 106.623 25.2746C111.501 23.3988 116.805 23.0956 121.85 24.4045L123.161 24.7443C126.658 25.6291 129.934 27.2809 132.772 29.5901C134.993 31.4175 136.991 33.7314 137.169 36.2203C137.169 36.2256 137.171 36.2308 137.173 36.2357C137.788 39.0499 138.092 53.6706 138.092 53.6706H132.667L133.525 73.3769L133.456 73.2342C133.456 73.2342 102.165 79.416 102.165 76.2374V55.8948L101.523 48.5292L93.6393 46.6772Z" fill="#CCCCCC"/>
<path d="M122.847 21.649C127.636 21.649 131.518 17.5962 131.518 12.5968C131.518 7.59738 127.636 3.54456 122.847 3.54456C118.058 3.54456 114.175 7.59738 114.175 12.5968C114.175 17.5962 118.058 21.649 122.847 21.649Z" fill="#FEB8B8"/>
<path d="M124.146 8.53724L130.879 8.8189C131.726 8.81617 132.651 8.78498 133.296 8.21317C134.268 7.35032 134.105 5.72214 133.585 4.50585C132.134 1.11925 128.898 -0.094016 125.345 0.00562548C121.792 0.105267 118.069 1.36244 116.156 4.48798C114.242 7.61351 113.725 11.5604 114.446 15.1923C115.279 13.3455 116.562 11.7592 118.166 10.5916C119.77 9.42405 121.639 8.7161 123.587 8.53845L124.146 8.53724Z" fill="#2F2E41"/>
<path d="M164.128 97.0807L139.758 79.2503C139.531 79.084 139.377 78.8308 139.329 78.5461C139.281 78.2615 139.343 77.9686 139.502 77.7316L158.63 49.2405C158.789 49.0041 159.032 48.8433 159.305 48.7933C159.577 48.7432 159.858 48.808 160.085 48.9734L184.456 66.8037C184.682 66.9701 184.836 67.2233 184.884 67.508C184.932 67.7926 184.87 68.0855 184.711 68.3225L165.584 96.8128C165.425 97.0495 165.182 97.2105 164.909 97.2607C164.636 97.311 164.356 97.2462 164.128 97.0807Z" fill="#C21010"/>
<path d="M169.609 77.7336L155.309 67.2711C155.143 67.1501 155.003 66.9962 154.894 66.8184C154.786 66.6405 154.712 66.4421 154.677 66.2345C154.642 66.0269 154.646 65.8141 154.69 65.6083C154.734 65.4025 154.816 65.2077 154.932 65.0351C155.048 64.8624 155.195 64.7153 155.366 64.6021C155.536 64.4889 155.726 64.4119 155.925 64.3753C156.124 64.3388 156.328 64.3436 156.525 64.3893C156.722 64.435 156.909 64.5208 157.074 64.6418L171.374 75.1043C171.708 75.3487 171.936 75.7216 172.006 76.1409C172.077 76.5602 171.985 76.9917 171.751 77.3403C171.517 77.689 171.16 77.9263 170.758 78.0001C170.356 78.0738 169.943 77.978 169.609 77.7336Z" fill="white"/>
<path d="M166.327 82.622L152.027 72.1594C151.861 72.0385 151.72 71.8847 151.612 71.7069C151.503 71.529 151.429 71.3305 151.394 71.1228C151.359 70.915 151.363 70.7021 151.407 70.4962C151.451 70.2903 151.533 70.0954 151.649 69.9226C151.765 69.7499 151.912 69.6027 152.083 69.4895C152.253 69.3763 152.444 69.2992 152.643 69.2628C152.842 69.2263 153.046 69.2312 153.243 69.2771C153.44 69.323 153.627 69.409 153.792 69.5302L168.092 79.9927C168.426 80.2372 168.653 80.61 168.723 81.0292C168.794 81.4483 168.702 81.8795 168.468 82.2279C168.234 82.5764 167.877 82.8136 167.476 82.8875C167.074 82.9614 166.661 82.8659 166.327 82.622Z" fill="white"/>
<path d="M163.01 87.5631L148.71 77.1005C148.544 76.9795 148.403 76.8257 148.295 76.6479C148.186 76.47 148.113 76.2716 148.078 76.064C148.043 75.8564 148.047 75.6436 148.091 75.4378C148.135 75.232 148.217 75.0372 148.333 74.8645C148.449 74.6919 148.596 74.5448 148.767 74.4316C148.937 74.3184 149.127 74.2413 149.326 74.2048C149.525 74.1683 149.729 74.173 149.926 74.2187C150.123 74.2645 150.309 74.3503 150.475 74.4713L164.775 84.9338C165.109 85.1782 165.336 85.551 165.407 85.9704C165.478 86.3897 165.386 86.8211 165.152 87.1698C164.918 87.5185 164.561 87.7558 164.159 87.8295C163.757 87.9033 163.344 87.8074 163.01 87.5631V87.5631Z" fill="white"/>
<path d="M169.569 68.0632L164.03 64.0108C163.864 63.8898 163.723 63.7361 163.615 63.5582C163.506 63.3803 163.432 63.1818 163.397 62.9741C163.362 62.7664 163.366 62.5534 163.41 62.3475C163.454 62.1416 163.536 61.9467 163.652 61.774C163.768 61.6012 163.916 61.454 164.086 61.3408C164.257 61.2276 164.447 61.1506 164.646 61.1141C164.845 61.0777 165.049 61.0825 165.246 61.1284C165.443 61.1743 165.63 61.2603 165.795 61.3815L171.334 65.4339C171.668 65.6783 171.896 66.0512 171.966 66.4705C172.037 66.8898 171.945 67.3213 171.711 67.6699C171.477 68.0186 171.12 68.2559 170.718 68.3297C170.316 68.4034 169.903 68.3076 169.569 68.0632Z" fill="white"/>
</g>
<defs>
<clipPath id="clip0_55_399">
<rect width="267" height="156" fill="white"/>
</clipPath>
</defs>
</svg>
