<svg width="523" height="517" viewBox="0 0 523 517" fill="none" xmlns="http://www.w3.org/2000/svg">
<g clip-path="url(#clip0_143_42)">
<path d="M267.908 98.9332C263.298 91.1157 257.836 82.769 249.281 80.2163C239.374 77.2602 229.197 83.1326 220.565 88.9275C194.749 106.258 169.889 125.039 146.096 145.186L146.122 145.489C164.646 144.179 183.169 142.869 201.692 141.56C215.075 140.613 228.918 139.537 240.745 133.045C245.233 130.582 249.607 127.291 254.693 127.062C261.011 126.777 266.52 131.302 270.85 136.029C296.46 163.991 303.871 206.752 332.603 231.319C314.485 185.506 292.853 141.239 267.908 98.9332Z" fill="#F2F2F2"/>
<path d="M425.329 336.104C422.497 332.437 421.34 331.578 418.546 327.878C395.8 297.713 374.42 266.53 354.407 234.328C340.813 212.457 327.894 190.167 315.648 167.456C309.819 156.659 304.149 145.778 298.638 134.812C294.363 126.309 290.182 117.755 286.097 109.15C284.929 106.692 283.794 104.223 282.664 101.749C280.003 95.9293 277.391 90.0818 274.586 84.3415C271.391 77.799 267.5 70.9401 261.632 66.5445C258.961 64.462 255.767 63.202 252.424 62.9117C247.647 62.5953 243.239 64.618 239.095 66.827C208.778 83.0364 180.395 103.359 154.723 126.484C128.985 149.66 105.98 175.845 86.1757 204.502C85.5698 205.389 84.1371 204.542 84.7486 203.649C87.1567 200.158 89.6124 196.704 92.1159 193.287C123.245 150.838 161.413 114.334 204.877 85.4432C212.189 80.5844 219.639 75.9534 227.226 71.5503C231.05 69.3299 234.891 67.1378 238.797 65.0812C242.627 63.0642 246.694 61.2506 251.069 61.1828C265.957 60.9456 273.666 78.234 278.961 89.8671C280.626 93.5282 282.31 97.178 284.014 100.816C290.456 114.63 297.145 128.318 304.082 141.879C308.364 150.253 312.739 158.577 317.208 166.852C331.115 192.621 345.897 217.868 361.554 242.594C382.294 275.346 402.87 304.278 426.497 334.906C427.148 335.754 425.985 336.963 425.329 336.104Z" fill="#E4E4E4"/>
<path d="M153.251 117.947C152.386 116.958 151.527 115.969 150.656 114.981C143.79 107.195 136.424 99.5 126.995 95.0366C122.5 92.8412 117.593 91.6749 112.614 91.6185C107.467 91.6354 102.436 93.0196 97.6812 94.9576C95.433 95.8785 93.2343 96.9237 91.069 98.0367C88.5948 99.3135 86.1647 100.675 83.7459 102.048C79.2054 104.624 74.7237 107.314 70.301 110.116C61.5011 115.692 52.9768 121.694 44.7281 128.122C40.452 131.455 36.2642 134.898 32.1646 138.45C28.3516 141.75 24.6157 145.138 20.957 148.614C20.1746 149.354 19.0063 148.156 19.7887 147.416C20.753 146.495 21.7283 145.58 22.7037 144.676C25.4588 142.122 28.258 139.618 31.1013 137.162C36.2863 132.676 41.6054 128.363 47.0589 124.224C55.5392 117.783 64.3114 111.779 73.3755 106.212C77.905 103.432 82.4969 100.769 87.151 98.2231C88.5563 97.4548 89.978 96.7033 91.4161 95.9915C94.6792 94.3038 98.0698 92.8886 101.555 91.7597C106.491 90.1222 111.715 89.5961 116.868 90.2173C121.843 90.9594 126.637 92.6597 130.996 95.2287C140.253 100.534 147.433 108.737 154.42 116.743C155.125 117.557 153.962 118.76 153.251 117.947Z" fill="#E4E4E4"/>
<path d="M342.926 198.625L365.108 190.306L376.122 186.176C379.709 184.831 383.287 183.299 386.995 182.336C390.217 181.392 393.639 181.437 396.837 182.464C399.688 183.547 402.299 185.206 404.513 187.344C406.775 189.479 408.879 191.784 410.809 194.238C413.207 197.192 415.569 200.178 417.942 203.154C427.736 215.435 437.466 227.77 447.132 240.157C456.798 252.545 466.399 264.985 475.935 277.478C485.495 290.002 494.989 302.578 504.417 315.206C505.572 316.753 506.726 318.301 507.879 319.849C508.516 320.705 509.953 319.861 509.307 318.994C499.809 306.238 490.245 293.535 480.615 280.885C470.961 268.204 461.24 255.577 451.453 243.003C441.666 230.43 431.812 217.911 421.893 205.447C419.422 202.342 416.947 199.24 414.467 196.142C412.376 193.528 410.308 190.887 408.014 188.454C403.803 183.989 398.542 180.043 392.245 179.936C388.543 179.873 384.96 181.077 381.52 182.353C377.811 183.729 374.112 185.13 370.408 186.519L348.071 194.896L342.486 196.991C341.495 197.362 341.923 199.001 342.926 198.625L342.926 198.625Z" fill="#E4E4E4"/>
<path d="M124.076 104.833C112.804 98.8927 98.3676 100.056 88.0089 107.478C107.767 110.973 127.31 115.65 146.536 121.484C138.552 116.686 132.307 109.17 124.076 104.833Z" fill="#F2F2F2"/>
<path d="M87.898 107.457L85.7279 109.266C86.4619 108.633 87.225 108.039 88.0089 107.478C87.9719 107.471 87.935 107.464 87.898 107.457Z" fill="#F2F2F2"/>
<path d="M403.678 198.708C401.494 195.983 399.133 193.129 395.867 192.022L392.818 192.146C416.03 234.201 447.379 270.95 484.942 300.134C457.854 266.326 430.766 232.517 403.678 198.708Z" fill="#F2F2F2"/>
<path d="M214.06 176.226C215.472 181.483 218.651 186.058 223.035 189.143C224.73 190.326 226.736 191.461 227.316 193.478C227.621 194.764 227.433 196.121 226.791 197.268C226.15 198.401 225.37 199.446 224.47 200.375L224.388 200.691C220.181 198.135 216.179 194.902 213.855 190.49C211.532 186.079 211.207 180.297 214.06 176.226" fill="#F2F2F2"/>
<path d="M354.11 301.335C355.521 306.592 358.7 311.167 363.085 314.252C364.78 315.435 366.785 316.571 367.365 318.588C367.67 319.873 367.482 321.23 366.84 322.378C366.199 323.511 365.419 324.555 364.519 325.485L364.437 325.8C360.23 323.244 356.229 320.011 353.905 315.6C351.581 311.188 351.257 305.407 354.11 301.335" fill="#F2F2F2"/>
<path d="M74.612 292.707C76.0231 297.964 79.2021 302.539 83.5866 305.624C85.2818 306.807 87.2873 307.942 87.8672 309.959C88.1723 311.245 87.9843 312.602 87.3421 313.75C86.7011 314.883 85.9211 315.927 85.0212 316.857L84.9391 317.172C80.7325 314.616 76.7306 311.383 74.4069 306.972C72.0833 302.56 71.7589 296.779 74.612 292.707" fill="#F2F2F2"/>
<path d="M396.245 62.8629C413.175 62.8629 426.899 48.7905 426.899 31.4314C426.899 14.0723 413.175 0 396.245 0C379.315 0 365.59 14.0723 365.59 31.4314C365.59 48.7905 379.315 62.8629 396.245 62.8629Z" fill="#B03A3C"/>
<path d="M451.564 7.31564C436.708 5.25661 419.747 13.4902 415.896 28.3461C414.926 25.7047 413.161 23.448 410.858 21.902C408.555 20.356 405.832 19.6008 403.083 19.7455C400.334 19.8901 397.701 20.9271 395.564 22.7067C393.427 24.4863 391.898 26.9163 391.196 29.6457L392.897 30.8947C424.734 37.954 457.691 37.8012 489.464 30.447C479.13 19.3111 466.421 9.37463 451.564 7.31564Z" fill="#F0F0F0"/>
<path d="M387.851 49.2243C372.994 47.1653 356.033 55.3989 352.183 70.2547C351.212 67.6134 349.448 65.3567 347.145 63.8107C344.842 62.2647 342.119 61.5095 339.37 61.6542C336.62 61.7988 333.987 62.8358 331.85 64.6154C329.714 66.395 328.184 68.825 327.482 71.5543L329.183 72.8034C361.02 79.8627 393.977 79.7099 425.751 72.3557C415.416 61.2198 402.707 51.2833 387.851 49.2243Z" fill="#F0F0F0"/>
<path d="M517.518 57.1487C517.457 57.1489 517.395 57.1391 517.337 57.1198C358.41 5.58576 218.337 12.3247 128.817 27.0528C116.634 29.0564 104.418 31.3705 92.5096 33.9315C89.4693 34.5845 86.3152 35.2844 83.1349 36.0133C79.3368 36.8806 75.5892 37.7737 71.9957 38.6669C70.4437 39.0436 68.9221 39.4234 67.4307 39.8062C65.1717 40.378 62.8796 40.9738 60.4225 41.6286C57.6768 42.3544 54.8872 43.1158 52.1292 43.8916C52.1192 43.8952 52.1089 43.8982 52.0984 43.9006L52.0987 43.9012C48.9836 44.7733 45.8849 45.6707 42.8884 46.5669C41.2665 47.0471 39.7005 47.5208 38.2004 47.9885C38.0328 48.036 37.8843 48.0817 37.7338 48.1287L37.4115 48.2292C37.2249 48.2876 37.0406 48.3447 36.8562 48.3989L36.8445 48.4025L36.8448 48.4031L36.357 48.5585C35.7753 48.739 35.2077 48.9154 34.6495 49.0911C19.8962 53.7543 11.7859 57.0717 11.7058 57.1042C11.6325 57.1343 11.5542 57.1494 11.4752 57.1484C11.3963 57.1475 11.3183 57.1306 11.2457 57.0988C11.1732 57.067 11.1074 57.0208 11.0522 56.9629C10.9971 56.9051 10.9536 56.8366 10.9242 56.7615C10.8948 56.6864 10.8802 56.606 10.8811 56.5251C10.882 56.4442 10.8984 56.3642 10.9295 56.2898C10.9605 56.2154 11.0055 56.148 11.062 56.0914C11.1184 56.0348 11.1852 55.9902 11.2585 55.9601C11.3392 55.9276 19.4892 52.5933 34.2961 47.9127C34.8564 47.7363 35.4255 47.56 36.0089 47.3788L36.4621 47.2344C36.4776 47.2284 36.4932 47.2235 36.509 47.2187C36.6925 47.1652 36.8756 47.108 37.0617 47.0502L37.3845 46.9497C37.5454 46.8997 37.7038 46.8504 37.8661 46.8046C39.3559 46.34 40.9273 45.8651 42.5532 45.3831C45.5509 44.4863 48.6525 43.5889 51.77 42.7156C51.7797 42.712 51.7897 42.7096 51.7994 42.7066V42.706C54.567 41.9278 57.3669 41.1634 60.1213 40.4352C62.5823 39.7797 64.8788 39.1827 67.1417 38.6097C68.6393 38.2276 70.1639 37.847 71.7154 37.468C75.3131 36.5736 79.0683 35.6793 82.8731 34.8102C86.0584 34.0807 89.2178 33.379 92.2631 32.7254C104.19 30.1602 116.425 27.8425 128.626 25.8359C218.275 11.0868 358.548 4.33689 517.699 55.945C517.836 55.9893 517.953 56.0823 518.028 56.2073C518.104 56.3323 518.134 56.4809 518.112 56.6264C518.09 56.7718 518.018 56.9044 517.909 57.0002C517.8 57.096 517.662 57.1487 517.518 57.1487Z" fill="#CCCCCC"/>
<path d="M164.075 258.748C163.867 258.124 163.516 257.56 163.053 257.103C162.882 256.94 162.697 256.794 162.5 256.665C160.931 255.593 158.587 255.353 157.096 256.665C156.946 256.799 156.808 256.945 156.682 257.103C156.237 257.664 155.78 258.212 155.311 258.748C154.542 259.648 153.755 260.517 152.931 261.361C152.697 261.596 152.462 261.836 152.222 262.07C152.084 262.212 151.945 262.348 151.807 262.483C151.278 263.001 150.737 263.5 150.19 263.993C149.902 264.258 149.613 264.517 149.319 264.77C148.88 265.146 148.441 265.522 147.996 265.885C147.954 265.916 147.912 265.947 147.87 265.984C147.858 265.99 147.852 266.002 147.84 266.008C147.834 266.008 147.828 266.008 147.822 266.021C147.806 266.027 147.791 266.038 147.78 266.052C147.648 266.144 147.558 266.206 147.491 266.261C147.515 266.249 147.539 266.23 147.564 266.218C147.455 266.304 147.341 266.391 147.233 266.477C146.181 267.272 145.105 268.036 144.005 268.751C141.284 270.537 138.425 272.093 135.458 273.404C135.26 273.484 135.055 273.57 134.851 273.651C127.082 276.914 118.654 278.188 110.297 277.361C109.444 277.293 108.59 277.2 107.737 277.083C106.751 276.935 105.771 276.757 104.797 276.553C101.09 275.795 97.4631 274.672 93.966 273.201C89.5915 271.147 85.4309 268.644 81.5479 265.731C80.9468 265.294 80.3397 264.856 79.7326 264.431C80.4239 262.693 81.1031 260.955 81.7643 259.204C82.0949 258.36 82.4134 257.516 82.726 256.665C85.1844 250.114 87.4925 243.501 89.7044 236.863C91.9404 230.14 94.0502 223.377 96.0337 216.575C96.2381 215.885 96.4364 215.194 96.6288 214.504C97.6686 210.911 98.6664 207.31 99.6221 203.7C99.7122 203.349 99.8084 203.004 99.8926 202.653C100.169 201.617 100.44 200.582 100.704 199.546C101.305 197.211 99.9467 194.419 97.5544 193.858C96.4026 193.555 95.1811 193.723 94.1473 194.325C93.1136 194.927 92.3482 195.918 92.0125 197.087C91.7541 198.086 91.4956 199.078 91.2311 200.076C89.9629 204.902 88.6285 209.711 87.228 214.504C87.0236 215.194 86.8193 215.885 86.6149 216.575C83.5254 227.015 80.1334 237.35 76.4388 247.581C75.994 248.82 75.5432 250.054 75.0864 251.285C74.864 251.889 74.6416 252.493 74.4132 253.097C73.9744 254.286 73.5236 255.476 73.0728 256.665C72.8143 257.362 72.5498 258.058 72.2854 258.748C72.1111 259.186 71.9428 259.624 71.7745 260.055C70.0607 259.424 68.2851 258.986 66.479 258.748L66.1905 258.711C64.7903 258.539 63.3742 258.551 61.977 258.748C59.8859 258.999 57.874 259.717 56.0833 260.852C54.2927 261.987 52.7672 263.512 51.6145 265.318C48.7474 269.947 48.7835 276.566 52.8047 280.498C56.946 284.547 63.2152 284.516 68.0899 281.983C70.6732 280.55 72.8514 278.457 74.4132 275.906C75.0115 274.982 75.5613 274.025 76.0601 273.04C76.1863 273.127 76.3125 273.213 76.4388 273.305C76.9196 273.651 77.4005 274.002 77.8753 274.347C80.6421 276.402 83.5577 278.238 86.5969 279.838C93.1317 283.169 100.166 285.351 107.406 286.291C107.568 286.309 107.725 286.334 107.887 286.353C108.686 286.457 109.492 286.537 110.297 286.605C121.851 287.498 133.419 285.074 143.705 279.604C144.576 279.142 145.44 278.657 146.295 278.15C147.624 277.361 148.922 276.523 150.19 275.635C150.881 275.154 151.555 274.667 152.222 274.156C155.137 271.954 157.855 269.489 160.342 266.791C161.286 265.774 162.19 264.724 163.053 263.642C163.87 262.756 164.34 261.594 164.375 260.375C164.371 259.819 164.269 259.268 164.075 258.748ZM64.5436 273.429C64.6698 273.336 64.796 273.238 64.9162 273.139C64.8802 273.232 64.7059 273.336 64.5436 273.429H64.5436ZM66.473 271.438C66.3348 271.598 66.2085 271.759 66.0703 271.919C65.6497 272.401 65.1979 272.854 64.7179 273.275C64.6518 273.336 64.5797 273.398 64.5075 273.453C64.5067 273.453 64.5059 273.453 64.5052 273.454C64.5045 273.454 64.5038 273.455 64.5032 273.455C64.5027 273.456 64.5022 273.456 64.5019 273.457C64.5016 273.458 64.5015 273.459 64.5015 273.46C64.4147 273.499 64.3304 273.545 64.249 273.595C63.9906 273.755 63.7261 273.903 63.4557 274.039C62.9261 274.239 62.3812 274.393 61.8268 274.501C61.4007 274.533 60.9731 274.537 60.5465 274.513H60.5344C60.24 274.446 59.9492 274.364 59.6629 274.267C59.5186 274.193 59.3804 274.107 59.2421 274.02C59.188 273.971 59.1399 273.922 59.1099 273.891C59.0512 273.836 58.9969 273.776 58.9477 273.712C58.9477 273.711 58.9475 273.711 58.9472 273.71C58.9469 273.709 58.9465 273.708 58.9459 273.708C58.9454 273.707 58.9447 273.707 58.9439 273.706C58.9432 273.706 58.9424 273.706 58.9416 273.706C58.8755 273.583 58.8034 273.46 58.7373 273.336C58.7338 273.333 58.7317 273.329 58.7313 273.324C58.6832 273.17 58.6411 273.01 58.605 272.849C58.592 272.568 58.594 272.286 58.611 272.005C58.6917 271.611 58.8002 271.224 58.9356 270.846C59.0573 270.579 59.1959 270.319 59.3504 270.07C59.3624 270.045 59.4225 269.947 59.4886 269.836C59.4946 269.829 59.4946 269.83 59.4946 269.823C59.5848 269.719 59.6749 269.608 59.7711 269.509C59.9334 269.324 60.1077 269.164 60.282 268.997C60.621 268.77 60.9722 268.562 61.3339 268.375C61.9077 268.166 62.4965 268.003 63.095 267.888C63.9776 267.816 64.8646 267.824 65.7458 267.913C66.5803 268.061 67.4038 268.269 68.2101 268.535C67.7214 269.508 67.165 270.443 66.5452 271.333C66.5211 271.37 66.4971 271.407 66.473 271.438ZM59.7891 269.41C59.7362 269.498 59.6736 269.578 59.6028 269.651C59.6505 269.56 59.7136 269.479 59.7891 269.41Z" fill="#3F3D56"/>
<path d="M146.007 195.805C145.953 197.741 145.899 199.676 145.844 201.611C145.73 205.907 145.612 210.204 145.49 214.504C145.364 219.342 145.231 224.178 145.093 229.012C145.027 231.508 144.959 234.004 144.889 236.5C144.702 243.224 144.518 249.945 144.336 256.665C144.318 257.362 144.294 258.052 144.276 258.748C144.185 262.083 144.095 265.417 144.005 268.751C143.903 272.369 143.803 275.986 143.705 279.604C143.632 282.316 143.558 285.03 143.482 287.745C142.941 307.424 142.4 327.102 141.859 346.781C141.836 348 141.354 349.162 140.514 350.024C139.673 350.885 138.54 351.38 137.351 351.403C136.159 351.393 135.018 350.903 134.174 350.039C133.331 349.174 132.853 348.004 132.843 346.781C133.144 335.712 133.448 324.643 133.757 313.575C134.027 303.566 134.302 293.557 134.58 283.548C134.671 280.251 134.761 276.952 134.851 273.651C134.989 268.683 135.125 263.716 135.26 258.748C135.278 258.052 135.302 257.362 135.32 256.665C135.332 256.055 135.35 255.451 135.368 254.841C135.632 245.196 135.897 235.549 136.161 225.899C136.269 222.103 136.374 218.305 136.474 214.504C136.594 210.171 136.714 205.841 136.834 201.512C136.888 199.608 136.937 197.71 136.991 195.805C137.014 194.587 137.496 193.425 138.336 192.563C139.177 191.701 140.31 191.207 141.499 191.183C142.691 191.193 143.832 191.683 144.676 192.548C145.519 193.413 145.997 194.583 146.007 195.805Z" fill="#3F3D56"/>
<path d="M393.304 197.088C388.577 215.442 382.927 233.532 376.377 251.287C374.57 256.184 372.721 261.072 370.744 265.9L371.199 264.796C370.317 267.096 369.19 269.289 367.839 271.336C367.747 271.468 367.654 271.599 367.559 271.729C368.026 271.116 368.114 270.995 367.825 271.366C367.672 271.551 367.521 271.737 367.363 271.917C366.943 272.4 366.491 272.854 366.012 273.275C365.891 273.381 365.768 273.485 365.644 273.586L366.208 273.137C366.142 273.295 365.683 273.505 365.54 273.595C365.077 273.881 364.594 274.132 364.094 274.346L365.171 273.88C364.353 274.218 363.5 274.458 362.628 274.595L363.826 274.43C362.97 274.551 362.102 274.561 361.243 274.458L362.442 274.623C361.739 274.524 361.051 274.334 360.395 274.058L361.472 274.524C361.122 274.368 360.784 274.183 360.463 273.972C360.3 273.863 359.798 273.474 360.454 273.987C361.135 274.521 360.541 274.033 360.401 273.891C360.284 273.773 360.179 273.644 360.065 273.524C359.535 272.967 360.664 274.484 360.303 273.832C360.111 273.505 359.934 273.168 359.775 272.823L360.23 273.927C360.023 273.401 359.876 272.853 359.792 272.293L359.953 273.522C359.867 272.825 359.867 272.12 359.951 271.423L359.79 272.652C359.901 271.874 360.101 271.113 360.388 270.384L359.934 271.488C360.134 270.998 360.371 270.524 360.642 270.072C360.767 269.838 360.913 269.616 361.08 269.411C361.109 269.421 360.317 270.344 360.738 269.878C360.848 269.756 360.95 269.628 361.062 269.507C361.24 269.313 361.43 269.136 361.618 268.953C362.246 268.341 360.739 269.549 361.464 269.064C361.989 268.71 362.542 268.401 363.116 268.14L362.039 268.606C363.002 268.2 364.011 267.923 365.042 267.78L363.843 267.945C365.135 267.793 366.439 267.809 367.727 267.992L366.528 267.827C368.158 268.081 369.752 268.54 371.272 269.195L370.195 268.729C373.435 270.155 376.304 272.273 379.168 274.349C381.934 276.403 384.849 278.238 387.887 279.838C394.422 283.169 401.457 285.352 408.697 286.293C419.081 287.597 429.618 286.207 439.342 282.249C449.065 278.292 457.663 271.894 464.348 263.643C465.163 262.756 465.633 261.593 465.668 260.374C465.66 259.15 465.186 257.977 464.348 257.106C462.694 255.549 459.57 255.109 457.973 257.106C456.459 259 454.832 260.797 453.1 262.484C452.292 263.27 451.462 264.033 450.61 264.77C450.124 265.192 449.631 265.605 449.131 266.01C448.894 266.201 448.158 266.711 449.289 265.888C449.03 266.077 448.781 266.283 448.525 266.477C444.74 269.338 440.638 271.73 436.304 273.604L437.381 273.138C432.731 275.138 427.847 276.51 422.853 277.22L424.051 277.054C418.913 277.747 413.707 277.74 408.571 277.031L409.77 277.196C404.634 276.473 399.612 275.07 394.829 273.024L395.906 273.49C391.29 271.395 386.909 268.793 382.841 265.73C380.723 264.122 378.49 262.681 376.161 261.419C373.447 259.998 370.509 259.082 367.483 258.714C361.809 258.03 356.028 260.296 352.909 265.321C350.039 269.947 350.076 276.565 354.095 280.498C358.235 284.549 364.505 284.514 369.384 281.981C374.083 279.54 376.905 274.471 378.89 269.69C383.356 258.933 387.311 247.926 390.995 236.864C394.64 225.92 397.946 214.865 400.912 203.699C401.279 202.316 401.641 200.932 401.998 199.546C402.6 197.211 401.24 194.418 398.85 193.86C397.697 193.556 396.475 193.723 395.44 194.325C394.406 194.927 393.64 195.918 393.304 197.088L393.304 197.088Z" fill="#3F3D56"/>
<path d="M438.284 195.805L436.661 254.843L435.047 313.573L434.134 346.781C434.145 348.004 434.623 349.174 435.466 350.038C436.309 350.903 437.45 351.393 438.642 351.404C439.831 351.38 440.964 350.885 441.805 350.024C442.645 349.162 443.128 348 443.15 346.781L444.773 287.744L446.387 229.014L447.3 195.805C447.29 194.582 446.812 193.413 445.968 192.548C445.125 191.684 443.984 191.193 442.792 191.183C441.604 191.206 440.47 191.701 439.63 192.563C438.789 193.425 438.307 194.587 438.284 195.805Z" fill="#3F3D56"/>
<path opacity="0.2" d="M282.247 330.298H283.647V264.944H316.302V263.513H283.647V235.937H308.865C308.495 235.455 308.115 234.979 307.724 234.509H283.647V216.295C283.184 216.093 282.717 215.898 282.247 215.714V234.509H254.807V211.172C254.337 211.194 253.874 211.228 253.407 211.268V234.509H231.516V217.098C231.046 217.311 230.583 217.536 230.123 217.771V234.509H211.721V235.937H230.123V263.513H211.721V264.944H230.123V330.298H231.516V264.944C234.391 264.944 237.238 265.524 239.894 266.652C242.55 267.78 244.964 269.433 246.997 271.517C249.03 273.602 250.642 276.076 251.742 278.8C252.842 281.523 253.408 284.442 253.407 287.39V330.298H254.807V264.944H282.247V330.298ZM231.516 263.513V235.937H253.407V263.513H231.516ZM254.807 263.513V235.937H255.356C258.888 235.937 262.385 236.65 265.647 238.036C268.91 239.422 271.875 241.454 274.372 244.014C276.869 246.575 278.849 249.615 280.201 252.96C281.552 256.306 282.247 259.892 282.247 263.513H254.807Z" fill="black"/>
<path d="M273.698 310.703C271.936 318.763 267.715 326.038 261.647 331.472C261.202 331.867 260.757 332.249 260.294 332.625C259.17 332.729 258.054 332.836 256.946 332.945C256.027 333.031 255.119 333.124 254.218 333.21L254.055 333.229L253.941 332.218L253.484 328.126C251.712 325.159 250.614 321.822 250.27 318.361C249.927 314.9 250.347 311.404 251.501 308.133C253.088 303.745 255.961 299.868 258.786 296.022C262.687 290.71 266.479 285.459 266.618 278.982C268.537 281.5 270.133 284.261 271.366 287.197C270.203 287.759 269.157 288.548 268.289 289.52C268.042 289.798 267.796 290.186 267.964 290.519C268.108 290.802 268.469 290.87 268.781 290.907C269.533 290.987 270.29 291.067 271.042 291.147C271.643 291.215 272.244 291.277 272.845 291.345C273.572 293.792 274.065 296.306 274.317 298.851C274.722 302.81 274.513 306.811 273.698 310.703Z" fill="#3F3D56"/>
<path d="M293.654 294.55C290.107 297.194 288.034 300.996 286.423 305.187C284.772 305.729 283.287 306.701 282.113 308.01C281.867 308.287 281.62 308.675 281.789 309.008C281.933 309.292 282.294 309.359 282.606 309.396C283.357 309.476 284.115 309.557 284.866 309.637C283.255 314.592 281.777 319.719 278.928 323.904C277.033 326.667 274.563 328.964 271.697 330.628C270.915 331.085 270.108 331.494 269.28 331.854C266.227 332.095 263.232 332.352 260.294 332.625C259.17 332.73 258.054 332.836 256.946 332.945C256.027 333.032 255.119 333.124 254.218 333.21C254.212 332.871 254.212 332.532 254.218 332.193C254.408 323.164 257.647 314.481 263.384 307.628C263.654 307.307 263.931 306.993 264.213 306.678C267.12 303.496 270.537 300.848 274.317 298.851C280.274 295.676 286.95 294.191 293.654 294.55Z" fill="#B03A3C"/>
<path d="M257.986 329.783L257.295 331.879L256.946 332.945C256.027 333.031 255.119 333.124 254.218 333.21L254.055 333.229C253.057 333.333 252.066 333.438 251.074 333.543C250.815 333.235 250.557 332.92 250.305 332.6C244.031 324.81 241.019 314.79 241.928 304.731C242.837 294.671 247.592 285.389 255.155 278.914C254.362 283.172 255.287 287.252 256.808 291.301C256.646 291.369 256.49 291.437 256.339 291.511C255.176 292.073 254.13 292.862 253.262 293.834C253.015 294.112 252.769 294.5 252.937 294.833C253.081 295.116 253.442 295.184 253.755 295.221C254.506 295.301 255.263 295.381 256.015 295.461C256.616 295.529 257.217 295.591 257.818 295.659C258.1 295.69 258.383 295.72 258.665 295.751C258.708 295.844 258.744 295.93 258.786 296.022C260.499 299.831 262.344 303.658 263.384 307.627C263.645 308.623 263.849 309.633 263.997 310.653C264.46 314.1 264.16 317.61 263.119 320.921C262.079 324.233 260.324 327.262 257.986 329.783Z" fill="#B03A3C"/>
<path d="M318.489 240.395C313.314 230.046 305.298 221.339 295.869 214.94C286.41 208.55 275.557 204.658 264.275 203.612C262.797 203.474 261.314 203.394 259.828 203.37C258.072 203.343 231.658 211.155 222.81 217.534C213.966 223.835 206.691 232.18 201.572 241.895C196.462 251.663 193.948 262.637 194.284 273.717C194.722 284.862 197.752 295.739 203.121 305.441C208.417 315.111 215.937 323.309 225.027 329.32C234.246 335.352 243.507 351.344 254.392 351.909C265.359 352.478 277.866 337.392 287.869 332.811C297.871 328.193 306.518 320.967 312.949 311.854C319.197 302.923 323.24 292.572 324.729 281.687C326.276 270.543 325.555 259.049 321.843 248.397C320.891 245.66 319.77 242.987 318.489 240.395C317.419 238.235 314.284 237.44 312.321 238.737C311.31 239.376 310.578 240.389 310.276 241.567C309.975 242.745 310.128 243.996 310.704 245.061C311.332 246.33 311.916 247.62 312.456 248.93L312.002 247.826C314.045 252.864 315.435 258.156 316.135 263.565L315.974 262.336C316.719 268.205 316.705 274.149 315.934 280.014L316.095 278.785C315.316 284.649 313.789 290.383 311.554 295.84L312.009 294.736C310.859 297.521 309.519 300.218 307.999 302.809C307.228 304.118 306.411 305.396 305.546 306.643C305.166 307.191 304.775 307.729 304.381 308.265C303.866 308.965 305.082 307.351 304.55 308.037C304.46 308.154 304.37 308.271 304.279 308.388C304.006 308.738 303.729 309.085 303.448 309.428C301.574 311.721 299.529 313.86 297.331 315.828C296.784 316.317 296.227 316.796 295.662 317.264C295.38 317.497 295.101 317.74 294.808 317.957C294.819 317.949 295.757 317.218 295.202 317.642C295.027 317.776 294.854 317.911 294.679 318.044C293.513 318.93 292.316 319.771 291.088 320.566C288.261 322.392 285.295 323.982 282.219 325.32L283.296 324.854C277.989 327.144 272.412 328.709 266.708 329.508L267.906 329.343C262.205 330.133 256.427 330.143 250.722 329.374L251.921 329.539C246.737 328.825 241.666 327.42 236.837 325.358L237.914 325.824C235.117 324.613 232.42 323.172 229.85 321.515C228.578 320.693 227.339 319.821 226.133 318.897C225.961 318.766 225.79 318.632 225.619 318.5C225.069 318.074 226.014 318.814 226.022 318.819C225.702 318.583 225.394 318.332 225.099 318.064C224.517 317.578 223.943 317.08 223.379 316.571C221.122 314.533 219.014 312.327 217.072 309.971C216.586 309.382 216.11 308.784 215.645 308.177C215.444 307.915 215.076 307.382 215.888 308.503C215.781 308.356 215.671 308.211 215.563 308.064C215.304 307.712 215.048 307.357 214.796 306.999C213.913 305.747 213.074 304.464 212.279 303.15C210.481 300.176 208.913 297.063 207.587 293.839L208.041 294.943C205.872 289.651 204.389 284.09 203.629 278.403L203.79 279.632C203.105 274.39 203.095 269.078 203.761 263.833L203.6 265.061C204.283 259.982 205.616 255.017 207.564 250.295L207.11 251.399C208.335 248.443 209.781 245.588 211.434 242.86C212.262 241.494 213.139 240.162 214.066 238.863C214.276 238.568 214.489 238.275 214.704 237.983C214.899 237.72 215.435 237.063 214.521 238.223C214.61 238.109 214.697 237.992 214.785 237.877C215.293 237.217 215.814 236.567 216.347 235.927C218.366 233.504 220.552 231.234 222.889 229.135C223.48 228.604 224.08 228.084 224.689 227.576C224.966 227.345 225.245 227.116 225.525 226.89C225.637 226.8 225.751 226.711 225.863 226.62C224.662 227.599 225.529 226.886 225.802 226.677C227.057 225.712 228.347 224.796 229.67 223.927C232.611 221.999 235.704 220.328 238.918 218.931L237.841 219.397C242.506 217.388 263.171 212.649 266.929 213.166L265.731 213.001C271.255 213.792 276.655 215.321 281.792 217.551L280.715 217.085C283.318 218.218 285.848 219.521 288.288 220.985C289.508 221.718 290.704 222.491 291.875 223.304C292.43 223.689 292.978 224.082 293.521 224.484C293.792 224.685 294.062 224.888 294.33 225.094C294.479 225.208 294.627 225.323 294.776 225.438C295.4 225.918 293.915 224.742 294.57 225.273C296.762 227.039 298.843 228.943 300.802 230.976C301.764 231.981 302.693 233.017 303.589 234.086C304.049 234.634 304.499 235.19 304.939 235.754C305.158 236.035 305.904 237.049 304.99 235.806C305.213 236.11 305.439 236.412 305.66 236.718C307.559 239.354 309.246 242.144 310.704 245.061C311.782 247.217 314.903 248.021 316.872 246.72C317.883 246.081 318.616 245.068 318.917 243.89C319.218 242.712 319.065 241.46 318.489 240.395Z" fill="#3F3D56"/>
<path d="M265.961 315.828C265.496 315.85 265.035 315.724 264.642 315.469C264.248 315.213 263.941 314.84 263.761 314.399C263.581 313.959 263.538 313.472 263.637 313.005C263.736 312.539 263.973 312.114 264.315 311.79C264.372 311.557 264.413 311.389 264.47 311.156C264.45 311.105 264.429 311.054 264.409 311.003C262.317 305.889 248.97 320.145 248.393 324.951C248.139 327.076 248.246 329.229 248.71 331.316C244.387 321.646 242.142 311.137 242.127 300.499C242.126 297.83 242.271 295.163 242.56 292.51C242.8 290.335 243.132 288.176 243.556 286.032C245.873 274.401 250.849 263.498 258.073 254.221C262.205 254.457 265.826 253.812 266.175 245.602C266.237 244.141 267.294 242.877 267.527 241.438C267.132 241.491 266.731 241.524 266.337 241.551C266.214 241.557 266.085 241.564 265.962 241.571L265.916 241.573C265.482 241.593 265.052 241.484 264.678 241.259C264.303 241.034 264 240.703 263.805 240.306C263.609 239.909 263.53 239.462 263.577 239.02C263.623 238.577 263.793 238.158 264.067 237.813C264.237 237.598 264.408 237.383 264.578 237.168C264.837 236.837 265.102 236.512 265.361 236.18C265.39 236.149 265.418 236.116 265.445 236.081C265.742 235.703 266.039 235.332 266.337 234.954C265.794 234.09 265.064 233.366 264.203 232.839C261.222 231.049 257.11 232.288 254.956 235.053C252.797 237.818 252.389 241.697 253.139 245.151C253.877 248.09 255.097 250.879 256.747 253.399C256.586 253.611 256.418 253.816 256.256 254.029C253.301 257.925 250.725 262.109 248.566 266.52C249.177 261.627 241.707 243.958 238.818 240.216C235.348 235.72 228.233 237.682 227.621 243.381C227.615 243.436 227.61 243.491 227.604 243.546C228.033 243.795 228.453 244.058 228.864 244.337C229.38 244.69 229.78 245.196 230.012 245.787C230.243 246.377 230.295 247.026 230.161 247.648C230.026 248.269 229.712 248.835 229.259 249.27C228.806 249.705 228.235 249.99 227.622 250.087L227.559 250.097C221.815 258.506 240.228 280.391 244.837 275.477C242.667 281.781 241.307 288.346 240.789 295.01C240.495 298.941 240.513 302.89 240.84 306.818L240.821 306.679C239.797 298.123 222.229 285.402 217.099 286.462C214.144 287.072 211.233 286.933 211.682 289.99C211.689 290.039 211.696 290.088 211.703 290.136C212.5 290.469 213.275 290.852 214.025 291.283C214.454 291.532 214.874 291.795 215.285 292.074C215.801 292.427 216.201 292.933 216.433 293.524C216.664 294.114 216.716 294.763 216.582 295.385C216.447 296.006 216.133 296.572 215.68 297.007C215.227 297.442 214.656 297.727 214.042 297.824L213.979 297.834C213.934 297.841 213.895 297.847 213.85 297.854C211.236 307.078 230.624 321.964 242.412 317.227H242.418C243.586 322.432 245.279 327.498 247.468 332.344H265.509C265.574 332.138 265.632 331.926 265.69 331.721C264.02 331.828 262.344 331.726 260.698 331.416C262.037 329.732 263.375 328.034 264.714 326.35C264.744 326.319 264.772 326.286 264.798 326.251C265.477 325.389 266.162 324.534 266.841 323.672L266.842 323.671C266.878 321.029 266.582 318.393 265.962 315.828L265.961 315.828ZM245.302 274.158L245.312 274.145L245.302 274.171V274.158ZM241.306 311.094L241.151 310.736C241.157 310.478 241.157 310.219 241.151 309.954C241.151 309.881 241.138 309.808 241.138 309.735C241.196 310.193 241.248 310.65 241.312 311.107L241.306 311.094Z" fill="#3F3D56"/>
<path d="M63.2513 277.336C66.9029 277.336 69.8631 274.301 69.8631 270.557C69.8631 266.813 66.9029 263.778 63.2513 263.778C59.5997 263.778 56.6395 266.813 56.6395 270.557C56.6395 274.301 59.5997 277.336 63.2513 277.336Z" fill="#3F3D56"/>
<path d="M142.593 351.293C146.244 351.293 149.204 348.257 149.204 344.513C149.204 340.769 146.244 337.734 142.593 337.734C138.941 337.734 135.981 340.769 135.981 344.513C135.981 348.257 138.941 351.293 142.593 351.293Z" fill="#3F3D56"/>
<path d="M443.729 351.293C447.381 351.293 450.341 348.257 450.341 344.513C450.341 340.769 447.381 337.734 443.729 337.734C440.078 337.734 437.117 340.769 437.117 344.513C437.117 348.257 440.078 351.293 443.729 351.293Z" fill="#3F3D56"/>
<path d="M459.958 265.01C463.61 265.01 466.57 261.975 466.57 258.231C466.57 254.487 463.61 251.451 459.958 251.451C456.307 251.451 453.346 254.487 453.346 258.231C453.346 261.975 456.307 265.01 459.958 265.01Z" fill="#3F3D56"/>
<path d="M440.724 202.147C444.375 202.147 447.336 199.112 447.336 195.368C447.336 191.624 444.375 188.589 440.724 188.589C437.072 188.589 434.112 191.624 434.112 195.368C434.112 199.112 437.072 202.147 440.724 202.147Z" fill="#3F3D56"/>
<path d="M164.832 258.231C164.828 259.963 164.175 261.626 163.008 262.878C161.841 264.13 160.249 264.873 158.562 264.955C156.875 265.037 155.222 264.451 153.945 263.318C152.668 262.185 151.864 260.591 151.701 258.868C151.537 257.144 152.027 255.422 153.067 254.058C154.107 252.694 155.619 251.792 157.29 251.539C158.961 251.287 160.663 251.702 162.043 252.7C163.423 253.697 164.377 255.201 164.706 256.9C164.791 257.338 164.833 257.784 164.832 258.231Z" fill="#3F3D56"/>
<path d="M297.068 221.869C300.719 221.869 303.68 218.834 303.68 215.09C303.68 211.346 300.719 208.31 297.068 208.31C293.416 208.31 290.456 211.346 290.456 215.09C290.456 218.834 293.416 221.869 297.068 221.869Z" fill="#3F3D56"/>
<path d="M231.551 215.09C231.547 216.821 230.894 218.485 229.727 219.737C228.56 220.989 226.968 221.732 225.281 221.814C223.594 221.896 221.941 221.31 220.664 220.177C219.387 219.044 218.583 217.45 218.42 215.727C218.256 214.003 218.745 212.281 219.786 210.917C220.826 209.553 222.338 208.651 224.009 208.398C225.68 208.145 227.382 208.561 228.762 209.559C230.142 210.556 231.096 212.06 231.425 213.758C231.51 214.197 231.552 214.643 231.551 215.09Z" fill="#3F3D56"/>
<path d="M146.199 195.368C146.195 197.1 145.542 198.764 144.375 200.015C143.208 201.267 141.616 202.011 139.929 202.093C138.242 202.174 136.589 201.588 135.312 200.455C134.035 199.322 133.231 197.729 133.068 196.005C132.904 194.282 133.393 192.56 134.434 191.195C135.474 189.831 136.986 188.929 138.657 188.677C140.328 188.424 142.029 188.839 143.41 189.837C144.79 190.835 145.744 192.338 146.073 194.037C146.158 194.475 146.2 194.921 146.199 195.368Z" fill="#3F3D56"/>
<path d="M366.191 279.801C369.843 279.801 372.803 276.766 372.803 273.022C372.803 269.278 369.843 266.243 366.191 266.243C362.539 266.243 359.579 269.278 359.579 273.022C359.579 276.766 362.539 279.801 366.191 279.801Z" fill="#3F3D56"/>
<path d="M262.206 218.171C267.517 218.171 271.823 213.756 271.823 208.31C271.823 202.864 267.517 198.449 262.206 198.449C256.894 198.449 252.589 202.864 252.589 208.31C252.589 213.756 256.894 218.171 262.206 218.171Z" fill="#3F3D56"/>
<path d="M522.284 351.811L6.71568 352C6.62169 352 6.52863 351.981 6.4418 351.944C6.35497 351.907 6.27607 351.853 6.20962 351.785C6.14316 351.717 6.09044 351.636 6.05447 351.547C6.0185 351.458 6 351.363 6 351.266C6 351.17 6.0185 351.074 6.05447 350.985C6.09044 350.896 6.14316 350.815 6.20962 350.747C6.27607 350.679 6.35497 350.625 6.4418 350.588C6.52863 350.551 6.62169 350.532 6.71568 350.532L522.284 350.343C522.474 350.344 522.655 350.421 522.789 350.559C522.923 350.696 522.998 350.883 522.998 351.077C522.998 351.271 522.923 351.457 522.789 351.595C522.655 351.733 522.474 351.81 522.284 351.811Z" fill="#CACACA"/>
</g>
<path d="M110.44 443.48C110.44 444.893 110.107 446.227 109.44 447.48C108.773 448.733 107.707 449.76 106.24 450.56C104.773 451.333 102.893 451.72 100.6 451.72H95.56V463H91V435.2H100.6C102.733 435.2 104.533 435.573 106 436.32C107.493 437.04 108.6 438.027 109.32 439.28C110.067 440.533 110.44 441.933 110.44 443.48ZM100.6 448C102.333 448 103.627 447.613 104.48 446.84C105.333 446.04 105.76 444.92 105.76 443.48C105.76 440.44 104.04 438.92 100.6 438.92H95.56V448H100.6ZM113.269 451.88C113.269 449.667 113.722 447.707 114.629 446C115.562 444.293 116.816 442.973 118.389 442.04C119.989 441.08 121.749 440.6 123.669 440.6C125.402 440.6 126.909 440.947 128.189 441.64C129.496 442.307 130.536 443.147 131.309 444.16V440.96H135.909V463H131.309V459.72C130.536 460.76 129.482 461.627 128.149 462.32C126.816 463.013 125.296 463.36 123.589 463.36C121.696 463.36 119.962 462.88 118.389 461.92C116.816 460.933 115.562 459.573 114.629 457.84C113.722 456.08 113.269 454.093 113.269 451.88ZM131.309 451.96C131.309 450.44 130.989 449.12 130.349 448C129.736 446.88 128.922 446.027 127.909 445.44C126.896 444.853 125.802 444.56 124.629 444.56C123.456 444.56 122.362 444.853 121.349 445.44C120.336 446 119.509 446.84 118.869 447.96C118.256 449.053 117.949 450.36 117.949 451.88C117.949 453.4 118.256 454.733 118.869 455.88C119.509 457.027 120.336 457.907 121.349 458.52C122.389 459.107 123.482 459.4 124.629 459.4C125.802 459.4 126.896 459.107 127.909 458.52C128.922 457.933 129.736 457.08 130.349 455.96C130.989 454.813 131.309 453.48 131.309 451.96ZM150.778 440.6C152.485 440.6 153.992 440.947 155.298 441.64C156.632 442.307 157.672 443.147 158.418 444.16V440.96H163.018V463.36C163.018 465.387 162.592 467.187 161.738 468.76C160.885 470.36 159.645 471.613 158.018 472.52C156.418 473.427 154.498 473.88 152.258 473.88C149.272 473.88 146.792 473.173 144.818 471.76C142.845 470.373 141.725 468.48 141.458 466.08H145.978C146.325 467.227 147.058 468.147 148.178 468.84C149.325 469.56 150.685 469.92 152.258 469.92C154.098 469.92 155.578 469.36 156.698 468.24C157.845 467.12 158.418 465.493 158.418 463.36V459.68C157.645 460.72 156.592 461.6 155.258 462.32C153.952 463.013 152.458 463.36 150.778 463.36C148.858 463.36 147.098 462.88 145.498 461.92C143.925 460.933 142.672 459.573 141.738 457.84C140.832 456.08 140.378 454.093 140.378 451.88C140.378 449.667 140.832 447.707 141.738 446C142.672 444.293 143.925 442.973 145.498 442.04C147.098 441.08 148.858 440.6 150.778 440.6ZM158.418 451.96C158.418 450.44 158.098 449.12 157.458 448C156.845 446.88 156.032 446.027 155.018 445.44C154.005 444.853 152.912 444.56 151.738 444.56C150.565 444.56 149.472 444.853 148.458 445.44C147.445 446 146.618 446.84 145.978 447.96C145.365 449.053 145.058 450.36 145.058 451.88C145.058 453.4 145.365 454.733 145.978 455.88C146.618 457.027 147.445 457.907 148.458 458.52C149.498 459.107 150.592 459.4 151.738 459.4C152.912 459.4 154.005 459.107 155.018 458.52C156.032 457.933 156.845 457.08 157.458 455.96C158.098 454.813 158.418 453.48 158.418 451.96ZM189.208 451.44C189.208 452.267 189.154 453.013 189.048 453.68H172.208C172.341 455.44 172.994 456.853 174.168 457.92C175.341 458.987 176.781 459.52 178.488 459.52C180.941 459.52 182.674 458.493 183.688 456.44H188.608C187.941 458.467 186.728 460.133 184.968 461.44C183.234 462.72 181.074 463.36 178.488 463.36C176.381 463.36 174.488 462.893 172.808 461.96C171.154 461 169.848 459.667 168.888 457.96C167.954 456.227 167.488 454.227 167.488 451.96C167.488 449.693 167.941 447.707 168.848 446C169.781 444.267 171.074 442.933 172.728 442C174.408 441.067 176.328 440.6 178.488 440.6C180.568 440.6 182.421 441.053 184.048 441.96C185.674 442.867 186.941 444.147 187.848 445.8C188.754 447.427 189.208 449.307 189.208 451.44ZM184.448 450C184.421 448.32 183.821 446.973 182.648 445.96C181.474 444.947 180.021 444.44 178.288 444.44C176.714 444.44 175.368 444.947 174.248 445.96C173.128 446.947 172.461 448.293 172.248 450H184.448ZM215.206 440.6C216.939 440.6 218.486 440.96 219.846 441.68C221.233 442.4 222.313 443.467 223.086 444.88C223.859 446.293 224.246 448 224.246 450V463H219.726V450.68C219.726 448.707 219.233 447.2 218.246 446.16C217.259 445.093 215.913 444.56 214.206 444.56C212.499 444.56 211.139 445.093 210.126 446.16C209.139 447.2 208.646 448.707 208.646 450.68V463H204.086V440.96H208.646V443.48C209.393 442.573 210.339 441.867 211.486 441.36C212.659 440.853 213.899 440.6 215.206 440.6ZM239.623 463.36C237.543 463.36 235.663 462.893 233.983 461.96C232.303 461 230.983 459.667 230.023 457.96C229.063 456.227 228.583 454.227 228.583 451.96C228.583 449.72 229.076 447.733 230.063 446C231.049 444.267 232.396 442.933 234.103 442C235.809 441.067 237.716 440.6 239.823 440.6C241.929 440.6 243.836 441.067 245.543 442C247.249 442.933 248.596 444.267 249.583 446C250.569 447.733 251.063 449.72 251.063 451.96C251.063 454.2 250.556 456.187 249.543 457.92C248.529 459.653 247.143 461 245.383 461.96C243.649 462.893 241.729 463.36 239.623 463.36ZM239.623 459.4C240.796 459.4 241.889 459.12 242.903 458.56C243.943 458 244.783 457.16 245.423 456.04C246.063 454.92 246.383 453.56 246.383 451.96C246.383 450.36 246.076 449.013 245.463 447.92C244.849 446.8 244.036 445.96 243.023 445.4C242.009 444.84 240.916 444.56 239.743 444.56C238.569 444.56 237.476 444.84 236.463 445.4C235.476 445.96 234.689 446.8 234.103 447.92C233.516 449.013 233.223 450.36 233.223 451.96C233.223 454.333 233.823 456.173 235.023 457.48C236.249 458.76 237.783 459.4 239.623 459.4ZM260.89 444.68V456.88C260.89 457.707 261.077 458.307 261.45 458.68C261.85 459.027 262.517 459.2 263.45 459.2H266.25V463H262.65C260.597 463 259.024 462.52 257.93 461.56C256.837 460.6 256.29 459.04 256.29 456.88V444.68H253.69V440.96H256.29V435.48H260.89V440.96H266.25V444.68H260.89ZM290.084 444.68H286.004V463H281.404V444.68H278.804V440.96H281.404V439.4C281.404 436.867 282.07 435.027 283.404 433.88C284.764 432.707 286.884 432.12 289.764 432.12V435.92C288.377 435.92 287.404 436.187 286.844 436.72C286.284 437.227 286.004 438.12 286.004 439.4V440.96H290.084V444.68ZM303.685 463.36C301.605 463.36 299.725 462.893 298.045 461.96C296.365 461 295.045 459.667 294.085 457.96C293.125 456.227 292.645 454.227 292.645 451.96C292.645 449.72 293.138 447.733 294.125 446C295.112 444.267 296.458 442.933 298.165 442C299.872 441.067 301.778 440.6 303.885 440.6C305.992 440.6 307.898 441.067 309.605 442C311.312 442.933 312.658 444.267 313.645 446C314.632 447.733 315.125 449.72 315.125 451.96C315.125 454.2 314.618 456.187 313.605 457.92C312.592 459.653 311.205 461 309.445 461.96C307.712 462.893 305.792 463.36 303.685 463.36ZM303.685 459.4C304.858 459.4 305.952 459.12 306.965 458.56C308.005 458 308.845 457.16 309.485 456.04C310.125 454.92 310.445 453.56 310.445 451.96C310.445 450.36 310.138 449.013 309.525 447.92C308.912 446.8 308.098 445.96 307.085 445.4C306.072 444.84 304.978 444.56 303.805 444.56C302.632 444.56 301.538 444.84 300.525 445.4C299.538 445.96 298.752 446.8 298.165 447.92C297.578 449.013 297.285 450.36 297.285 451.96C297.285 454.333 297.885 456.173 299.085 457.48C300.312 458.76 301.845 459.4 303.685 459.4ZM339.593 440.96V463H335.033V460.4C334.313 461.307 333.366 462.027 332.193 462.56C331.046 463.067 329.819 463.32 328.513 463.32C326.779 463.32 325.219 462.96 323.833 462.24C322.473 461.52 321.393 460.453 320.593 459.04C319.819 457.627 319.433 455.92 319.433 453.92V440.96H323.953V453.24C323.953 455.213 324.446 456.733 325.433 457.8C326.419 458.84 327.766 459.36 329.473 459.36C331.179 459.36 332.526 458.84 333.513 457.8C334.526 456.733 335.033 455.213 335.033 453.24V440.96H339.593ZM356.729 440.6C358.463 440.6 360.009 440.96 361.369 441.68C362.756 442.4 363.836 443.467 364.609 444.88C365.383 446.293 365.769 448 365.769 450V463H361.249V450.68C361.249 448.707 360.756 447.2 359.769 446.16C358.783 445.093 357.436 444.56 355.729 444.56C354.023 444.56 352.663 445.093 351.649 446.16C350.663 447.2 350.169 448.707 350.169 450.68V463H345.609V440.96H350.169V443.48C350.916 442.573 351.863 441.867 353.009 441.36C354.183 440.853 355.423 440.6 356.729 440.6ZM370.066 451.88C370.066 449.667 370.519 447.707 371.426 446C372.359 444.293 373.613 442.973 375.186 442.04C376.786 441.08 378.559 440.6 380.506 440.6C381.946 440.6 383.359 440.92 384.746 441.56C386.159 442.173 387.279 443 388.106 444.04V433.4H392.706V463H388.106V459.68C387.359 460.747 386.319 461.627 384.986 462.32C383.679 463.013 382.173 463.36 380.466 463.36C378.546 463.36 376.786 462.88 375.186 461.92C373.613 460.933 372.359 459.573 371.426 457.84C370.519 456.08 370.066 454.093 370.066 451.88ZM388.106 451.96C388.106 450.44 387.786 449.12 387.146 448C386.533 446.88 385.719 446.027 384.706 445.44C383.693 444.853 382.599 444.56 381.426 444.56C380.253 444.56 379.159 444.853 378.146 445.44C377.133 446 376.306 446.84 375.666 447.96C375.053 449.053 374.746 450.36 374.746 451.88C374.746 453.4 375.053 454.733 375.666 455.88C376.306 457.027 377.133 457.907 378.146 458.52C379.186 459.107 380.279 459.4 381.426 459.4C382.599 459.4 383.693 459.107 384.706 458.52C385.719 457.933 386.533 457.08 387.146 455.96C387.786 454.813 388.106 453.48 388.106 451.96Z" fill="#3F3D56"/>
<path d="M12.65 489.575V491.425H7.9V507H5.625V491.425H0.85V489.575H12.65ZM22.2504 493.05C23.2837 493.05 24.2171 493.275 25.0504 493.725C25.8837 494.158 26.5337 494.817 27.0004 495.7C27.4837 496.583 27.7254 497.658 27.7254 498.925V507H25.4754V499.25C25.4754 497.883 25.1337 496.842 24.4504 496.125C23.7671 495.392 22.8337 495.025 21.6504 495.025C20.4504 495.025 19.4921 495.4 18.7754 496.15C18.0754 496.9 17.7254 497.992 17.7254 499.425V507H15.4504V488.5H17.7254V495.25C18.1754 494.55 18.7921 494.008 19.5754 493.625C20.3754 493.242 21.2671 493.05 22.2504 493.05ZM43.9416 499.625C43.9416 500.058 43.9166 500.517 43.8666 501H32.9166C32.9999 502.35 33.4583 503.408 34.2916 504.175C35.1416 504.925 36.1666 505.3 37.3666 505.3C38.3499 505.3 39.1666 505.075 39.8166 504.625C40.4833 504.158 40.9499 503.542 41.2166 502.775H43.6666C43.2999 504.092 42.5666 505.167 41.4666 506C40.3666 506.817 38.9999 507.225 37.3666 507.225C36.0666 507.225 34.8999 506.933 33.8666 506.35C32.8499 505.767 32.0499 504.942 31.4666 503.875C30.8833 502.792 30.5916 501.542 30.5916 500.125C30.5916 498.708 30.8749 497.467 31.4416 496.4C32.0083 495.333 32.7999 494.517 33.8166 493.95C34.8499 493.367 36.0333 493.075 37.3666 493.075C38.6666 493.075 39.8166 493.358 40.8166 493.925C41.8166 494.492 42.5833 495.275 43.1166 496.275C43.6666 497.258 43.9416 498.375 43.9416 499.625ZM41.5916 499.15C41.5916 498.283 41.3999 497.542 41.0166 496.925C40.6333 496.292 40.1083 495.817 39.4416 495.5C38.7916 495.167 38.0666 495 37.2666 495C36.1166 495 35.1333 495.367 34.3166 496.1C33.5166 496.833 33.0583 497.85 32.9416 499.15H41.5916ZM65.7596 493.3V507H63.4846V504.975C63.0512 505.675 62.4429 506.225 61.6596 506.625C60.8929 507.008 60.0429 507.2 59.1096 507.2C58.0429 507.2 57.0846 506.983 56.2346 506.55C55.3846 506.1 54.7096 505.433 54.2096 504.55C53.7262 503.667 53.4846 502.592 53.4846 501.325V493.3H55.7346V501.025C55.7346 502.375 56.0762 503.417 56.7596 504.15C57.4429 504.867 58.3762 505.225 59.5596 505.225C60.7762 505.225 61.7346 504.85 62.4346 504.1C63.1346 503.35 63.4846 502.258 63.4846 500.825V493.3H65.7596ZM71.8758 495.525C72.2758 494.742 72.8424 494.133 73.5758 493.7C74.3258 493.267 75.2341 493.05 76.3008 493.05V495.4H75.7008C73.1508 495.4 71.8758 496.783 71.8758 499.55V507H69.6008V493.3H71.8758V495.525ZM81.202 488.5V507H78.927V488.5H81.202ZM103.544 493.3L95.2943 513.45H92.9443L95.6443 506.85L90.1193 493.3H92.6443L96.9443 504.4L101.194 493.3H103.544ZM111.806 507.225C110.523 507.225 109.356 506.933 108.306 506.35C107.273 505.767 106.456 504.942 105.856 503.875C105.273 502.792 104.981 501.542 104.981 500.125C104.981 498.725 105.281 497.492 105.881 496.425C106.498 495.342 107.331 494.517 108.381 493.95C109.431 493.367 110.606 493.075 111.906 493.075C113.206 493.075 114.381 493.367 115.431 493.95C116.481 494.517 117.306 495.333 117.906 496.4C118.523 497.467 118.831 498.708 118.831 500.125C118.831 501.542 118.515 502.792 117.881 503.875C117.265 504.942 116.423 505.767 115.356 506.35C114.29 506.933 113.106 507.225 111.806 507.225ZM111.806 505.225C112.623 505.225 113.39 505.033 114.106 504.65C114.823 504.267 115.398 503.692 115.831 502.925C116.281 502.158 116.506 501.225 116.506 500.125C116.506 499.025 116.29 498.092 115.856 497.325C115.423 496.558 114.856 495.992 114.156 495.625C113.456 495.242 112.698 495.05 111.881 495.05C111.048 495.05 110.281 495.242 109.581 495.625C108.898 495.992 108.348 496.558 107.931 497.325C107.515 498.092 107.306 499.025 107.306 500.125C107.306 501.242 107.506 502.183 107.906 502.95C108.323 503.717 108.873 504.292 109.556 504.675C110.24 505.042 110.99 505.225 111.806 505.225ZM133.972 493.3V507H131.697V504.975C131.264 505.675 130.656 506.225 129.872 506.625C129.106 507.008 128.256 507.2 127.322 507.2C126.256 507.2 125.297 506.983 124.447 506.55C123.597 506.1 122.922 505.433 122.422 504.55C121.939 503.667 121.697 502.592 121.697 501.325V493.3H123.947V501.025C123.947 502.375 124.289 503.417 124.972 504.15C125.656 504.867 126.589 505.225 127.772 505.225C128.989 505.225 129.947 504.85 130.647 504.1C131.347 503.35 131.697 502.258 131.697 500.825V493.3H133.972ZM143.629 500.1C143.629 498.7 143.912 497.475 144.479 496.425C145.045 495.358 145.82 494.533 146.804 493.95C147.804 493.367 148.912 493.075 150.129 493.075C151.329 493.075 152.37 493.333 153.254 493.85C154.137 494.367 154.795 495.017 155.229 495.8V493.3H157.529V507H155.229V504.45C154.779 505.25 154.104 505.917 153.204 506.45C152.32 506.967 151.287 507.225 150.104 507.225C148.887 507.225 147.787 506.925 146.804 506.325C145.82 505.725 145.045 504.883 144.479 503.8C143.912 502.717 143.629 501.483 143.629 500.1ZM155.229 500.125C155.229 499.092 155.02 498.192 154.604 497.425C154.187 496.658 153.62 496.075 152.904 495.675C152.204 495.258 151.429 495.05 150.579 495.05C149.729 495.05 148.954 495.25 148.254 495.65C147.554 496.05 146.995 496.633 146.579 497.4C146.162 498.167 145.954 499.067 145.954 500.1C145.954 501.15 146.162 502.067 146.579 502.85C146.995 503.617 147.554 504.208 148.254 504.625C148.954 505.025 149.729 505.225 150.579 505.225C151.429 505.225 152.204 505.025 152.904 504.625C153.62 504.208 154.187 503.617 154.604 502.85C155.02 502.067 155.229 501.158 155.229 500.125ZM163.648 495.525C164.048 494.742 164.615 494.133 165.348 493.7C166.098 493.267 167.007 493.05 168.073 493.05V495.4H167.473C164.923 495.4 163.648 496.783 163.648 499.55V507H161.373V493.3H163.648V495.525ZM183.199 499.625C183.199 500.058 183.174 500.517 183.124 501H172.174C172.258 502.35 172.716 503.408 173.549 504.175C174.399 504.925 175.424 505.3 176.624 505.3C177.608 505.3 178.424 505.075 179.074 504.625C179.741 504.158 180.208 503.542 180.474 502.775H182.924C182.558 504.092 181.824 505.167 180.724 506C179.624 506.817 178.258 507.225 176.624 507.225C175.324 507.225 174.158 506.933 173.124 506.35C172.108 505.767 171.308 504.942 170.724 503.875C170.141 502.792 169.849 501.542 169.849 500.125C169.849 498.708 170.133 497.467 170.699 496.4C171.266 495.333 172.058 494.517 173.074 493.95C174.108 493.367 175.291 493.075 176.624 493.075C177.924 493.075 179.074 493.358 180.074 493.925C181.074 494.492 181.841 495.275 182.374 496.275C182.924 497.258 183.199 498.375 183.199 499.625ZM180.849 499.15C180.849 498.283 180.658 497.542 180.274 496.925C179.891 496.292 179.366 495.817 178.699 495.5C178.049 495.167 177.324 495 176.524 495C175.374 495 174.391 495.367 173.574 496.1C172.774 496.833 172.316 497.85 172.199 499.15H180.849ZM195.142 488.5V507H192.867V488.5H195.142ZM204.995 507.225C203.711 507.225 202.545 506.933 201.495 506.35C200.461 505.767 199.645 504.942 199.045 503.875C198.461 502.792 198.17 501.542 198.17 500.125C198.17 498.725 198.47 497.492 199.07 496.425C199.686 495.342 200.52 494.517 201.57 493.95C202.62 493.367 203.795 493.075 205.095 493.075C206.395 493.075 207.57 493.367 208.62 493.95C209.67 494.517 210.495 495.333 211.095 496.4C211.711 497.467 212.02 498.708 212.02 500.125C212.02 501.542 211.703 502.792 211.07 503.875C210.453 504.942 209.611 505.767 208.545 506.35C207.478 506.933 206.295 507.225 204.995 507.225ZM204.995 505.225C205.811 505.225 206.578 505.033 207.295 504.65C208.011 504.267 208.586 503.692 209.02 502.925C209.47 502.158 209.695 501.225 209.695 500.125C209.695 499.025 209.478 498.092 209.045 497.325C208.611 496.558 208.045 495.992 207.345 495.625C206.645 495.242 205.886 495.05 205.07 495.05C204.236 495.05 203.47 495.242 202.77 495.625C202.086 495.992 201.536 496.558 201.12 497.325C200.703 498.092 200.495 499.025 200.495 500.125C200.495 501.242 200.695 502.183 201.095 502.95C201.511 503.717 202.061 504.292 202.745 504.675C203.428 505.042 204.178 505.225 204.995 505.225ZM220.986 507.225C219.703 507.225 218.536 506.933 217.486 506.35C216.453 505.767 215.636 504.942 215.036 503.875C214.453 502.792 214.161 501.542 214.161 500.125C214.161 498.725 214.461 497.492 215.061 496.425C215.678 495.342 216.511 494.517 217.561 493.95C218.611 493.367 219.786 493.075 221.086 493.075C222.386 493.075 223.561 493.367 224.611 493.95C225.661 494.517 226.486 495.333 227.086 496.4C227.703 497.467 228.011 498.708 228.011 500.125C228.011 501.542 227.694 502.792 227.061 503.875C226.444 504.942 225.603 505.767 224.536 506.35C223.469 506.933 222.286 507.225 220.986 507.225ZM220.986 505.225C221.803 505.225 222.569 505.033 223.286 504.65C224.003 504.267 224.578 503.692 225.011 502.925C225.461 502.158 225.686 501.225 225.686 500.125C225.686 499.025 225.469 498.092 225.036 497.325C224.603 496.558 224.036 495.992 223.336 495.625C222.636 495.242 221.878 495.05 221.061 495.05C220.228 495.05 219.461 495.242 218.761 495.625C218.078 495.992 217.528 496.558 217.111 497.325C216.694 498.092 216.486 499.025 216.486 500.125C216.486 501.242 216.686 502.183 217.086 502.95C217.503 503.717 218.053 504.292 218.736 504.675C219.419 505.042 220.169 505.225 220.986 505.225ZM238.652 507L233.277 500.95V507H231.002V488.5H233.277V499.375L238.552 493.3H241.727L235.277 500.125L241.752 507H238.652ZM245.043 491.075C244.61 491.075 244.243 490.925 243.943 490.625C243.643 490.325 243.493 489.958 243.493 489.525C243.493 489.092 243.643 488.725 243.943 488.425C244.243 488.125 244.61 487.975 245.043 487.975C245.46 487.975 245.81 488.125 246.093 488.425C246.393 488.725 246.543 489.092 246.543 489.525C246.543 489.958 246.393 490.325 246.093 490.625C245.81 490.925 245.46 491.075 245.043 491.075ZM246.143 493.3V507H243.868V493.3H246.143ZM256.696 493.05C258.362 493.05 259.712 493.558 260.746 494.575C261.779 495.575 262.296 497.025 262.296 498.925V507H260.046V499.25C260.046 497.883 259.704 496.842 259.021 496.125C258.337 495.392 257.404 495.025 256.221 495.025C255.021 495.025 254.062 495.4 253.346 496.15C252.646 496.9 252.296 497.992 252.296 499.425V507H250.021V493.3H252.296V495.25C252.746 494.55 253.354 494.008 254.121 493.625C254.904 493.242 255.762 493.05 256.696 493.05ZM271.662 493.075C272.845 493.075 273.879 493.333 274.762 493.85C275.662 494.367 276.329 495.017 276.762 495.8V493.3H279.062V507.3C279.062 508.55 278.795 509.658 278.262 510.625C277.729 511.608 276.962 512.375 275.962 512.925C274.979 513.475 273.829 513.75 272.512 513.75C270.712 513.75 269.212 513.325 268.012 512.475C266.812 511.625 266.104 510.467 265.887 509H268.137C268.387 509.833 268.904 510.5 269.687 511C270.47 511.517 271.412 511.775 272.512 511.775C273.762 511.775 274.779 511.383 275.562 510.6C276.362 509.817 276.762 508.717 276.762 507.3V504.425C276.312 505.225 275.645 505.892 274.762 506.425C273.879 506.958 272.845 507.225 271.662 507.225C270.445 507.225 269.337 506.925 268.337 506.325C267.354 505.725 266.579 504.883 266.012 503.8C265.445 502.717 265.162 501.483 265.162 500.1C265.162 498.7 265.445 497.475 266.012 496.425C266.579 495.358 267.354 494.533 268.337 493.95C269.337 493.367 270.445 493.075 271.662 493.075ZM276.762 500.125C276.762 499.092 276.554 498.192 276.137 497.425C275.72 496.658 275.154 496.075 274.437 495.675C273.737 495.258 272.962 495.05 272.112 495.05C271.262 495.05 270.487 495.25 269.787 495.65C269.087 496.05 268.529 496.633 268.112 497.4C267.695 498.167 267.487 499.067 267.487 500.1C267.487 501.15 267.695 502.067 268.112 502.85C268.529 503.617 269.087 504.208 269.787 504.625C270.487 505.025 271.262 505.225 272.112 505.225C272.962 505.225 273.737 505.025 274.437 504.625C275.154 504.208 275.72 503.617 276.137 502.85C276.554 502.067 276.762 501.158 276.762 500.125ZM295.146 495.175H292.271V507H289.996V495.175H288.221V493.3H289.996V492.325C289.996 490.792 290.388 489.675 291.171 488.975C291.971 488.258 293.246 487.9 294.996 487.9V489.8C293.996 489.8 293.288 490 292.871 490.4C292.471 490.783 292.271 491.425 292.271 492.325V493.3H295.146V495.175ZM303.774 507.225C302.491 507.225 301.324 506.933 300.274 506.35C299.241 505.767 298.424 504.942 297.824 503.875C297.241 502.792 296.949 501.542 296.949 500.125C296.949 498.725 297.249 497.492 297.849 496.425C298.466 495.342 299.299 494.517 300.349 493.95C301.399 493.367 302.574 493.075 303.874 493.075C305.174 493.075 306.349 493.367 307.399 493.95C308.449 494.517 309.274 495.333 309.874 496.4C310.491 497.467 310.799 498.708 310.799 500.125C310.799 501.542 310.482 502.792 309.849 503.875C309.232 504.942 308.391 505.767 307.324 506.35C306.257 506.933 305.074 507.225 303.774 507.225ZM303.774 505.225C304.591 505.225 305.357 505.033 306.074 504.65C306.791 504.267 307.366 503.692 307.799 502.925C308.249 502.158 308.474 501.225 308.474 500.125C308.474 499.025 308.257 498.092 307.824 497.325C307.391 496.558 306.824 495.992 306.124 495.625C305.424 495.242 304.666 495.05 303.849 495.05C303.016 495.05 302.249 495.242 301.549 495.625C300.866 495.992 300.316 496.558 299.899 497.325C299.482 498.092 299.274 499.025 299.274 500.125C299.274 501.242 299.474 502.183 299.874 502.95C300.291 503.717 300.841 504.292 301.524 504.675C302.207 505.042 302.957 505.225 303.774 505.225ZM316.065 495.525C316.465 494.742 317.032 494.133 317.765 493.7C318.515 493.267 319.424 493.05 320.49 493.05V495.4H319.89C317.34 495.4 316.065 496.783 316.065 499.55V507H313.79V493.3H316.065V495.525ZM328.931 500.1C328.931 498.7 329.215 497.475 329.781 496.425C330.348 495.358 331.123 494.533 332.106 493.95C333.106 493.367 334.223 493.075 335.456 493.075C336.523 493.075 337.515 493.325 338.431 493.825C339.348 494.308 340.048 494.95 340.531 495.75V488.5H342.831V507H340.531V504.425C340.081 505.242 339.415 505.917 338.531 506.45C337.648 506.967 336.615 507.225 335.431 507.225C334.215 507.225 333.106 506.925 332.106 506.325C331.123 505.725 330.348 504.883 329.781 503.8C329.215 502.717 328.931 501.483 328.931 500.1ZM340.531 500.125C340.531 499.092 340.323 498.192 339.906 497.425C339.49 496.658 338.923 496.075 338.206 495.675C337.506 495.258 336.731 495.05 335.881 495.05C335.031 495.05 334.256 495.25 333.556 495.65C332.856 496.05 332.298 496.633 331.881 497.4C331.465 498.167 331.256 499.067 331.256 500.1C331.256 501.15 331.465 502.067 331.881 502.85C332.298 503.617 332.856 504.208 333.556 504.625C334.256 505.025 335.031 505.225 335.881 505.225C336.731 505.225 337.506 505.025 338.206 504.625C338.923 504.208 339.49 503.617 339.906 502.85C340.323 502.067 340.531 501.158 340.531 500.125ZM352.651 507.225C351.368 507.225 350.201 506.933 349.151 506.35C348.118 505.767 347.301 504.942 346.701 503.875C346.118 502.792 345.826 501.542 345.826 500.125C345.826 498.725 346.126 497.492 346.726 496.425C347.343 495.342 348.176 494.517 349.226 493.95C350.276 493.367 351.451 493.075 352.751 493.075C354.051 493.075 355.226 493.367 356.276 493.95C357.326 494.517 358.151 495.333 358.751 496.4C359.368 497.467 359.676 498.708 359.676 500.125C359.676 501.542 359.359 502.792 358.726 503.875C358.109 504.942 357.268 505.767 356.201 506.35C355.134 506.933 353.951 507.225 352.651 507.225ZM352.651 505.225C353.468 505.225 354.234 505.033 354.951 504.65C355.668 504.267 356.243 503.692 356.676 502.925C357.126 502.158 357.351 501.225 357.351 500.125C357.351 499.025 357.134 498.092 356.701 497.325C356.268 496.558 355.701 495.992 355.001 495.625C354.301 495.242 353.543 495.05 352.726 495.05C351.893 495.05 351.126 495.242 350.426 495.625C349.743 495.992 349.193 496.558 348.776 497.325C348.359 498.092 348.151 499.025 348.151 500.125C348.151 501.242 348.351 502.183 348.751 502.95C349.168 503.717 349.718 504.292 350.401 504.675C351.084 505.042 351.834 505.225 352.651 505.225ZM375.167 499.625C375.167 500.058 375.142 500.517 375.092 501H364.142C364.226 502.35 364.684 503.408 365.517 504.175C366.367 504.925 367.392 505.3 368.592 505.3C369.576 505.3 370.392 505.075 371.042 504.625C371.709 504.158 372.176 503.542 372.442 502.775H374.892C374.526 504.092 373.792 505.167 372.692 506C371.592 506.817 370.226 507.225 368.592 507.225C367.292 507.225 366.126 506.933 365.092 506.35C364.076 505.767 363.276 504.942 362.692 503.875C362.109 502.792 361.817 501.542 361.817 500.125C361.817 498.708 362.101 497.467 362.667 496.4C363.234 495.333 364.026 494.517 365.042 493.95C366.076 493.367 367.259 493.075 368.592 493.075C369.892 493.075 371.042 493.358 372.042 493.925C373.042 494.492 373.809 495.275 374.342 496.275C374.892 497.258 375.167 498.375 375.167 499.625ZM372.817 499.15C372.817 498.283 372.626 497.542 372.242 496.925C371.859 496.292 371.334 495.817 370.667 495.5C370.017 495.167 369.292 495 368.492 495C367.342 495 366.359 495.367 365.542 496.1C364.742 496.833 364.284 497.85 364.167 499.15H372.817ZM383.02 507.225C381.97 507.225 381.028 507.05 380.195 506.7C379.362 506.333 378.703 505.833 378.22 505.2C377.737 504.55 377.47 503.808 377.42 502.975H379.77C379.837 503.658 380.153 504.217 380.72 504.65C381.303 505.083 382.062 505.3 382.995 505.3C383.862 505.3 384.545 505.108 385.045 504.725C385.545 504.342 385.795 503.858 385.795 503.275C385.795 502.675 385.528 502.233 384.995 501.95C384.462 501.65 383.637 501.358 382.52 501.075C381.503 500.808 380.67 500.542 380.02 500.275C379.387 499.992 378.837 499.583 378.37 499.05C377.92 498.5 377.695 497.783 377.695 496.9C377.695 496.2 377.903 495.558 378.32 494.975C378.737 494.392 379.328 493.933 380.095 493.6C380.862 493.25 381.737 493.075 382.72 493.075C384.237 493.075 385.462 493.458 386.395 494.225C387.328 494.992 387.828 496.042 387.895 497.375H385.62C385.57 496.658 385.278 496.083 384.745 495.65C384.228 495.217 383.528 495 382.645 495C381.828 495 381.178 495.175 380.695 495.525C380.212 495.875 379.97 496.333 379.97 496.9C379.97 497.35 380.112 497.725 380.395 498.025C380.695 498.308 381.062 498.542 381.495 498.725C381.945 498.892 382.562 499.083 383.345 499.3C384.328 499.567 385.128 499.833 385.745 500.1C386.362 500.35 386.887 500.733 387.32 501.25C387.77 501.767 388.003 502.442 388.02 503.275C388.02 504.025 387.812 504.7 387.395 505.3C386.978 505.9 386.387 506.375 385.62 506.725C384.87 507.058 384.003 507.225 383.02 507.225ZM404.572 493.05C406.238 493.05 407.588 493.558 408.622 494.575C409.655 495.575 410.172 497.025 410.172 498.925V507H407.922V499.25C407.922 497.883 407.58 496.842 406.897 496.125C406.213 495.392 405.28 495.025 404.097 495.025C402.897 495.025 401.938 495.4 401.222 496.15C400.522 496.9 400.172 497.992 400.172 499.425V507H397.897V493.3H400.172V495.25C400.622 494.55 401.23 494.008 401.997 493.625C402.78 493.242 403.638 493.05 404.572 493.05ZM419.863 507.225C418.58 507.225 417.413 506.933 416.363 506.35C415.33 505.767 414.513 504.942 413.913 503.875C413.33 502.792 413.038 501.542 413.038 500.125C413.038 498.725 413.338 497.492 413.938 496.425C414.555 495.342 415.388 494.517 416.438 493.95C417.488 493.367 418.663 493.075 419.963 493.075C421.263 493.075 422.438 493.367 423.488 493.95C424.538 494.517 425.363 495.333 425.963 496.4C426.58 497.467 426.888 498.708 426.888 500.125C426.888 501.542 426.571 502.792 425.938 503.875C425.321 504.942 424.48 505.767 423.413 506.35C422.346 506.933 421.163 507.225 419.863 507.225ZM419.863 505.225C420.68 505.225 421.446 505.033 422.163 504.65C422.88 504.267 423.455 503.692 423.888 502.925C424.338 502.158 424.563 501.225 424.563 500.125C424.563 499.025 424.346 498.092 423.913 497.325C423.48 496.558 422.913 495.992 422.213 495.625C421.513 495.242 420.755 495.05 419.938 495.05C419.105 495.05 418.338 495.242 417.638 495.625C416.955 495.992 416.405 496.558 415.988 497.325C415.571 498.092 415.363 499.025 415.363 500.125C415.363 501.242 415.563 502.183 415.963 502.95C416.38 503.717 416.93 504.292 417.613 504.675C418.296 505.042 419.046 505.225 419.863 505.225ZM432.654 495.175V503.25C432.654 503.917 432.796 504.392 433.079 504.675C433.362 504.942 433.854 505.075 434.554 505.075H436.229V507H434.179C432.912 507 431.962 506.708 431.329 506.125C430.696 505.542 430.379 504.583 430.379 503.25V495.175H428.604V493.3H430.379V489.85H432.654V493.3H436.229V495.175H432.654ZM458.151 499.625C458.151 500.058 458.126 500.517 458.076 501H447.126C447.209 502.35 447.667 503.408 448.501 504.175C449.351 504.925 450.376 505.3 451.576 505.3C452.559 505.3 453.376 505.075 454.026 504.625C454.692 504.158 455.159 503.542 455.426 502.775H457.876C457.509 504.092 456.776 505.167 455.676 506C454.576 506.817 453.209 507.225 451.576 507.225C450.276 507.225 449.109 506.933 448.076 506.35C447.059 505.767 446.259 504.942 445.676 503.875C445.092 502.792 444.801 501.542 444.801 500.125C444.801 498.708 445.084 497.467 445.651 496.4C446.217 495.333 447.009 494.517 448.026 493.95C449.059 493.367 450.242 493.075 451.576 493.075C452.876 493.075 454.026 493.358 455.026 493.925C456.026 494.492 456.792 495.275 457.326 496.275C457.876 497.258 458.151 498.375 458.151 499.625ZM455.801 499.15C455.801 498.283 455.609 497.542 455.226 496.925C454.842 496.292 454.317 495.817 453.651 495.5C453.001 495.167 452.276 495 451.476 495C450.326 495 449.342 495.367 448.526 496.1C447.726 496.833 447.267 497.85 447.151 499.15H455.801ZM468.304 507L465.054 501.9L461.929 507H459.554L463.979 500.2L459.554 493.3H462.129L465.379 498.375L468.479 493.3H470.854L466.454 500.075L470.879 507H468.304ZM474.291 491.075C473.858 491.075 473.491 490.925 473.191 490.625C472.891 490.325 472.741 489.958 472.741 489.525C472.741 489.092 472.891 488.725 473.191 488.425C473.491 488.125 473.858 487.975 474.291 487.975C474.708 487.975 475.058 488.125 475.341 488.425C475.641 488.725 475.791 489.092 475.791 489.525C475.791 489.958 475.641 490.325 475.341 490.625C475.058 490.925 474.708 491.075 474.291 491.075ZM475.391 493.3V507H473.116V493.3H475.391ZM484.119 507.225C483.069 507.225 482.127 507.05 481.294 506.7C480.46 506.333 479.802 505.833 479.319 505.2C478.835 504.55 478.569 503.808 478.519 502.975H480.869C480.935 503.658 481.252 504.217 481.819 504.65C482.402 505.083 483.16 505.3 484.094 505.3C484.96 505.3 485.644 505.108 486.144 504.725C486.644 504.342 486.894 503.858 486.894 503.275C486.894 502.675 486.627 502.233 486.094 501.95C485.56 501.65 484.735 501.358 483.619 501.075C482.602 500.808 481.769 500.542 481.119 500.275C480.485 499.992 479.935 499.583 479.469 499.05C479.019 498.5 478.794 497.783 478.794 496.9C478.794 496.2 479.002 495.558 479.419 494.975C479.835 494.392 480.427 493.933 481.194 493.6C481.96 493.25 482.835 493.075 483.819 493.075C485.335 493.075 486.56 493.458 487.494 494.225C488.427 494.992 488.927 496.042 488.994 497.375H486.719C486.669 496.658 486.377 496.083 485.844 495.65C485.327 495.217 484.627 495 483.744 495C482.927 495 482.277 495.175 481.794 495.525C481.31 495.875 481.069 496.333 481.069 496.9C481.069 497.35 481.21 497.725 481.494 498.025C481.794 498.308 482.16 498.542 482.594 498.725C483.044 498.892 483.66 499.083 484.444 499.3C485.427 499.567 486.227 499.833 486.844 500.1C487.46 500.35 487.985 500.733 488.419 501.25C488.869 501.767 489.102 502.442 489.119 503.275C489.119 504.025 488.91 504.7 488.494 505.3C488.077 505.9 487.485 506.375 486.719 506.725C485.969 507.058 485.102 507.225 484.119 507.225ZM495.105 495.175V503.25C495.105 503.917 495.247 504.392 495.53 504.675C495.814 504.942 496.305 505.075 497.005 505.075H498.68V507H496.63C495.364 507 494.414 506.708 493.78 506.125C493.147 505.542 492.83 504.583 492.83 503.25V495.175H491.055V493.3H492.83V489.85H495.105V493.3H498.68V495.175H495.105Z" fill="#3F3D56"/>
<defs>
<clipPath id="clip0_143_42">
<rect width="517" height="352" fill="white" transform="translate(6)"/>
</clipPath>
</defs>
</svg>
